<svg xmlns="http://www.w3.org/2000/svg" viewBox="0 0 161.17 137.56"><defs><style>.cls-1{fill:#e57e22;}.cls-2{fill:#7f4996;}.cls-3{fill:#1d1d1b;}</style></defs><title>fasstlogov1</title><g id="Layer_2" data-name="Layer 2"><g id="Layer_1-2" data-name="Layer 1"><path class="cls-1" d="M17.21,71.2c.07-.7.08-2,.05-3.75s-.09-3.7-.16-5.7-.16-3.84-.26-5.49a16.45,16.45,0,0,0-.37-3.12,1.18,1.18,0,0,0-1.11-.74,18.39,18.39,0,0,0-2.06-.11c-.77,0-1.55,0-2.33.05s-7.72,0-8.21-.16a1.91,1.91,0,0,1-1.16-1,3.41,3.41,0,0,1-.42-1.63A2.86,2.86,0,0,1,1.61,48a1.59,1.59,0,0,1,1.48-.68c.7,0,7.76,0,8.53.05s1.53.06,2.27.06a10.63,10.63,0,0,0,2-.16A2.23,2.23,0,0,0,17,46.8a9.16,9.16,0,0,0,.21-3q0-2.75-.06-6.81t-.11-8.92q0-4.86.05-9.29c.07-3,.19-5.6.37-7.92A15.64,15.64,0,0,1,18.37,6,7.94,7.94,0,0,1,20.75,3a8.25,8.25,0,0,1,3-1.43,12.83,12.83,0,0,1,3-.37h2.64a1.82,1.82,0,0,1,1.64,1,3.79,3.79,0,0,1,.58,2A4.23,4.23,0,0,1,31.15,6a1.43,1.43,0,0,1-1.37.84,25.86,25.86,0,0,0-3.64.06,4,4,0,0,0-3,1.74,8.51,8.51,0,0,0-.63,3.43q-.22,2.91-.32,7T22.07,28v8.71q0,4,.11,6.76a23.62,23.62,0,0,0,.21,3.07c.14.42.62.7,1.43.84a15.53,15.53,0,0,0,2.69.21c1,0,129.36,0,130.31-.05s1.64-.05,2.06-.05.63.31.85.95a5.43,5.43,0,0,1,.26,2,3.84,3.84,0,0,1-.58,1.9,1.54,1.54,0,0,1-1.58.74l-2.43-.21c-.85-.06-129.06-.12-129.84-.16s-1.46,0-2.06,0a2.75,2.75,0,0,0-1.22.26c-.21.14-.26,1-.16,2.59s.26,3.38.48,5.39.44,4,.69,6a39.33,39.33,0,0,1,.37,4.33,2.05,2.05,0,0,1-1.06,2,3.91,3.91,0,0,1-2.27.48,4.91,4.91,0,0,1-2.22-.74A1.69,1.69,0,0,1,17.21,71.2Z"/><path class="cls-1" d="M20.7,74.83l-.47,0a6,6,0,0,1-2.75-.92A2.87,2.87,0,0,1,16,71.08c.07-.64.08-1.86,0-3.6s-.09-3.69-.15-5.68-.16-3.82-.27-5.46a14.23,14.23,0,0,0-.31-2.82c-.68,0-1.32,0-2,0s-1.52,0-2.27.05H8.37a54.93,54.93,0,0,1-5.93-.22A3.09,3.09,0,0,1,.56,51.74,4.6,4.6,0,0,1,0,49.55,4,4,0,0,1,.6,47.4a2.7,2.7,0,0,1,2.48-1.25c.21,0,7.75,0,8.59.05a19.42,19.42,0,0,0,4-.08L16,46c0-.33.06-1,.06-2.18q0-2.74-.06-6.8t-.11-8.92c0-3.2,0-6.35.05-9.34s.2-5.67.37-8a16.5,16.5,0,0,1,1-5.27A9.2,9.2,0,0,1,20,2,9.42,9.42,0,0,1,23.42.4,14.1,14.1,0,0,1,26.71,0h2.64A3,3,0,0,1,32,1.52a5,5,0,0,1,.75,2.63,5.41,5.41,0,0,1-.55,2.43,2.61,2.61,0,0,1-2.43,1.5,24.15,24.15,0,0,0-3.55.05,2.83,2.83,0,0,0-2.15,1.26,10.16,10.16,0,0,0-.41,2.82c-.14,1.91-.25,4.25-.31,7s-.11,5.67-.11,8.79v8.71q0,4,.1,6.71c.07,1.8.13,2.45.15,2.69a3,3,0,0,1,.5.1c1.5.26,130.93.21,132.75.14,1,0,1.68-.05,2.11-.05s1.45.23,2,1.75a6.68,6.68,0,0,1,.32,2.45,5,5,0,0,1-.76,2.46A2.71,2.71,0,0,1,158,54.23l-.35,0L155.29,54c-.83-.07-129-.12-129.79-.15a19.35,19.35,0,0,0-1.94,0l-.3,0c0,.29,0,.77,0,1.56.11,1.57.26,3.35.47,5.34s.44,4,.68,5.94a39.86,39.86,0,0,1,.38,4.48,3.24,3.24,0,0,1-1.67,3A5,5,0,0,1,20.7,74.83ZM13.3,51.11a19.15,19.15,0,0,1,2.19.12,2.32,2.32,0,0,1,2.1,1.54A15.23,15.23,0,0,1,18,56.18c.11,1.67.2,3.51.27,5.53s.12,3.92.16,5.72a37.73,37.73,0,0,1-.06,3.88c0,.16,0,.33.35.57a3.75,3.75,0,0,0,1.69.56h.27A2.68,2.68,0,0,0,22,72.11c.23-.13.45-.32.45-.92A38,38,0,0,0,22.11,67q-.37-3-.69-6t-.48-5.43c-.16-2.37,0-3.19.68-3.65a3.55,3.55,0,0,1,1.8-.46,21.3,21.3,0,0,1,2.18,0c.8,0,129,.09,129.88.16l2.44.21c.3,0,.38,0,.48-.18a2.68,2.68,0,0,0,.4-1.33,4.2,4.2,0,0,0-.2-1.57l-.05-.14-1.69.05c-2,.07-131.58.12-133.25-.18a2.67,2.67,0,0,1-2.35-1.64A14.14,14.14,0,0,1,21,43.47q-.11-2.77-.11-6.8V28q0-4.72.11-8.85c.06-2.75.18-5.13.32-7.08.2-2.71.5-3.59.88-4.08A5.14,5.14,0,0,1,26,5.76a27,27,0,0,1,3.81-.06c.12,0,.17,0,.25-.19a3.11,3.11,0,0,0,.3-1.37A2.61,2.61,0,0,0,30,2.76a.65.65,0,0,0-.62-.38H26.71A11.57,11.57,0,0,0,24,2.71a7,7,0,0,0-2.52,1.23,6.81,6.81,0,0,0-2,2.62A14.24,14.24,0,0,0,18.66,11c-.17,2.27-.3,4.91-.37,7.86s-.09,6.08-.05,9.25.07,6.21.11,8.92.06,5,.06,6.83c0,2.94-.16,3.39-.56,3.79a3.28,3.28,0,0,1-1.78.8,21,21,0,0,1-4.5.13c-.77,0-7.43-.05-8.47-.05-.12,0-.4,0-.46.12a1.65,1.65,0,0,0-.25.91,2.22,2.22,0,0,0,.28,1.07c.19.35.37.4.44.42.69.06-1.71.13,5.27.13h2.56C11.72,51.13,12.51,51.11,13.3,51.11Z"/><path class="cls-2" d="M64.14,2.77a6.1,6.1,0,0,1,1.32.16,2.8,2.8,0,0,1,1.26.69,4.24,4.24,0,0,1,1,1.58,8.22,8.22,0,0,1,.42,3,28.34,28.34,0,0,0,.53,3.91c.35,2,.81,4.35,1.37,7.13s1.21,5.86,2,9.24,1.5,6.79,2.27,10.24,1.55,6.81,2.33,10.09,1.46,6.2,2.06,8.76,1.07,4.68,1.43,6.34.57,2.58.63,2.79c.07.43.16.87.26,1.32A3.63,3.63,0,0,1,81,69.35a4.37,4.37,0,0,1-.42,1.32,2,2,0,0,1-1.16,1,2.26,2.26,0,0,1-1.58.05,3.71,3.71,0,0,1-1.37-.9,6.94,6.94,0,0,1-1.11-1.48,7,7,0,0,1-.69-1.69A14.48,14.48,0,0,1,74.38,66c-.14-.88-.32-2-.53-3.27s-.46-2.8-.74-4.49-.56-3.42-.84-5.18c0-.07-.32-.11-1-.11s-1.44,0-2.43.06-2.11.12-3.38.26-2.53.25-3.8.32q-4,.32-7.23.63c-2.15.21-3.26.49-3.33.85q-1.26,5.06-1.9,7.44c-.42,1.58-.67,2.45-.74,2.59-.21.63-.51,1.5-.9,2.58a18.64,18.64,0,0,1-1.43,3.12,9.12,9.12,0,0,1-1.95,2.43,2.55,2.55,0,0,1-2.38.63,1.42,1.42,0,0,1-1.06-1.21A7.24,7.24,0,0,1,40.85,70a27.36,27.36,0,0,1,.85-3.49,39.45,39.45,0,0,1,1.42-3.91c.28-.63.91-2.39,1.9-5.28l3.48-10.24q2-5.91,4.22-12.56T56.9,22.15q2-5.76,3.22-9.77T61.6,7.84q.53-1.69.95-3.38T64.14,2.77Zm-11,45.62q-.21.32.53.48a8.41,8.41,0,0,0,2,.11l3-.16c1.12-.07,2.29-.17,3.49-.32q3.7-.32,6.44-.58c1.83-.18,2.67-.4,2.53-.69q-1-5.38-2-10.61t-2-9.35q-.94-4.11-1.79-6.71T64,18q-.63,0-1.85,2.85t-2.75,7.23q-1.53,4.38-3.17,9.77T53.16,48.39Z"/><path class="cls-2" d="M42.48,74.17a3.88,3.88,0,0,1-.91-.12,2.59,2.59,0,0,1-1.93-2.12,8.32,8.32,0,0,1,0-3,29.16,29.16,0,0,1,.88-3.64,41.51,41.51,0,0,1,1.46-4c.27-.6.89-2.35,1.87-5.21l3.49-10.24q2-5.9,4.22-12.56t4.18-12.42Q57.73,15.1,59,11.09c1.14-3.6,1.4-4.35,1.51-4.63.31-1,.62-2.11.9-3.22C62,1,63.36.65,64.14.65a7,7,0,0,1,1.58.19,4,4,0,0,1,1.8,1,5.42,5.42,0,0,1,1.31,2,9.26,9.26,0,0,1,.5,3.4,26.33,26.33,0,0,0,.51,3.7q.53,3,1.37,7.1t1.95,9.23q1.1,5.06,2.27,10.23t2.32,10.07q1.16,4.91,2.06,8.77t1.43,6.36c.33,1.55.53,2.44.6,2.67.11.58.2,1,.3,1.43a5,5,0,0,1,.07,1.81,5.76,5.76,0,0,1-.54,1.68,3.16,3.16,0,0,1-1.8,1.53,3.38,3.38,0,0,1-2.41.06,4.88,4.88,0,0,1-1.81-1.17A8.26,8.26,0,0,1,73.55,67a15.65,15.65,0,0,1-.34-1.74L72.68,62q-.32-2-.74-4.48c-.23-1.41-.49-2.15-.72-3.6-.61,0-.77,0-1.7.06S67,54,65.8,54.1s-9.07.13-11.21.35a13.94,13.94,0,0,0-2.4.38c-.8,3.2-1.39,5.52-1.8,7a20.38,20.38,0,0,1-.82,2.8c-.15.49-.45,1.37-.84,2.46a20.26,20.26,0,0,1-1.52,3.31A10.23,10.23,0,0,1,45,73.17,3.83,3.83,0,0,1,42.48,74.17ZM64.14,3c-.23,0-.4.66-.43.79-.29,1.15-.61,2.3-1,3.45-.22.54-1.17,3.55-1.49,4.54Q60,15.83,58,21.6T53.86,34q-2.21,6.65-4.22,12.57L46.15,56.82c-1,3-1.64,4.71-1.94,5.38A38.23,38.23,0,0,0,42.84,66,26.28,26.28,0,0,0,42,69.3,6.24,6.24,0,0,0,42,71.45c.06.27.13.29.18.31a1.36,1.36,0,0,0,1.32-.38,7.9,7.9,0,0,0,1.7-2.11,18.19,18.19,0,0,0,1.34-2.93c.38-1.08.68-1.94.89-2.56.13-.32.35-1.12.72-2.52q.64-2.38,1.9-7.43c.22-1.12,1.58-1.46,4.36-1.74q3.23-.32,7.26-.63c1.27-.07,2.52-.18,3.76-.31s2.45-.23,3.47-.27,1.83-.06,2.47-.06,2.14,0,2.14,1.29c.26,1.57.55,3.3.82,5s.53,3.19.74,4.49l.53,3.27a13.76,13.76,0,0,0,.27,1.46,5.91,5.91,0,0,0,.59,1.48A5.78,5.78,0,0,0,77.33,69a2.53,2.53,0,0,0,.93.61,1,1,0,0,0,.77,0,.91.91,0,0,0,.52-.37,3.2,3.2,0,0,0,.31-1,2.36,2.36,0,0,0,0-.92c-.11-.49-.21-1-.28-1.4h0s-.13-.42-.62-2.75q-.53-2.47-1.42-6.32T75.45,48.1Q74.28,43.18,73.12,38T70.85,27.75q-1.11-5.08-2-9.26t-1.38-7.15A29,29,0,0,1,67,7.22a6.92,6.92,0,0,0-.34-2.52,3,3,0,0,0-.7-1.14,1.62,1.62,0,0,0-.73-.41A4.83,4.83,0,0,0,64.14,3Zm-9,46.21a8,8,0,0,1-1.65-.14,1.86,1.86,0,0,1-1.42-1l-.23-.58L52,47q1.47-5.13,3.09-10.48c1.1-3.61,2.17-6.91,3.18-9.81s2-5.4,2.78-7.31C62.22,16.8,63,15.86,64,15.86s1.78,1.19,2.5,3.4c.57,1.76,1.19,4.05,1.82,6.81s1.3,5.92,2,9.39,1.3,6.92,1.92,10.46l.2.4-.31.67c-.37.68-1.18,1-3.45,1.17q-2.75.26-6.45.58c-1.18.14-2.37.25-3.51.32s-2.12.12-3,.16Zm-.49-2.9h1.08c.83,0,11-.36,12.78-.53.61-.06,1-.12,1.32-.17q-.87-4.93-1.79-9.73c-.66-3.44-1.32-6.57-1.95-9.3S64.83,21.7,64.28,20c-.13-.42-.25-.75-.36-1-.17.32-.38.77-.64,1.38-.79,1.85-1.71,4.26-2.72,7.16s-2.06,6.14-3.15,9.72C56.41,40.51,55.5,43.19,54.6,46.33Z"/><path class="cls-2" d="M94,64.62a2.34,2.34,0,0,1-.21-1.9,2.74,2.74,0,0,1,1-1.32,2.92,2.92,0,0,1,1.69-.47,2.59,2.59,0,0,1,1.74.63,2.33,2.33,0,0,1,.95,1.74,5.91,5.91,0,0,0,.69,2.21,4.89,4.89,0,0,0,2.21,2,12.36,12.36,0,0,0,5.33.85,4.61,4.61,0,0,0,3.64-1.85,14.24,14.24,0,0,0,2.48-5.17,43.22,43.22,0,0,0,1.38-7.92,92.52,92.52,0,0,0,.31-10.08,11.56,11.56,0,0,0-1.53-6.18,18.81,18.81,0,0,0-3.8-4.44A38.69,38.69,0,0,0,105,29.08a47.45,47.45,0,0,1-5-3.54,18.66,18.66,0,0,1-3.9-4.38,11.74,11.74,0,0,1-1.69-6.08q-.21-5.28,1.75-8.34a10,10,0,0,1,5.38-4.22,17.33,17.33,0,0,1,8.13-.47,36.52,36.52,0,0,1,10,3.11,1.66,1.66,0,0,1,1.16,1.53,2.94,2.94,0,0,1-.74,1.9,4,4,0,0,1-2,1.27,3.42,3.42,0,0,1-2.64-.37,28.8,28.8,0,0,0-4.17-1.58A17.52,17.52,0,0,0,106,7.06a9,9,0,0,0-4.59,1.16q-2,1.16-2,4.44A9.71,9.71,0,0,0,101,18.2a19.8,19.8,0,0,0,3.9,4.22,61.47,61.47,0,0,0,5.18,3.8,31.22,31.22,0,0,1,5.12,4.22,21.54,21.54,0,0,1,3.9,5.6,16.48,16.48,0,0,1,1.48,7.76q-.1,5.06-.47,10.29a41.46,41.46,0,0,1-1.69,9.45,17.65,17.65,0,0,1-3.91,7,9.86,9.86,0,0,1-7,3,14.2,14.2,0,0,1-6.92-1.06,12.51,12.51,0,0,1-4-2.9,9.19,9.19,0,0,1-1.9-3.11Z"/><path class="cls-2" d="M106.4.61a24.61,24.61,0,0,1,3.5.27,38.06,38.06,0,0,1,10.3,3.21A2.8,2.8,0,0,1,122,6.7a4.12,4.12,0,0,1-1,2.65A5.15,5.15,0,0,1,118.45,11a4.59,4.59,0,0,1-3.54-.46A28.68,28.68,0,0,0,111,9c-3.27-1-6.54-1.17-8.92.21-.35.2-1.42.82-1.42,3.41a8.57,8.57,0,0,0,1.33,4.88,18.7,18.7,0,0,0,3.68,4,60.08,60.08,0,0,0,5.07,3.73A32.94,32.94,0,0,1,116,29.62a22.73,22.73,0,0,1,4.12,5.9,17.74,17.74,0,0,1,1.6,8.31c-.06,3.35-.23,6.84-.48,10.35a42.75,42.75,0,0,1-1.74,9.72,18.9,18.9,0,0,1-4.17,7.43,11.06,11.06,0,0,1-7.83,3.33,15.57,15.57,0,0,1-7.5-1.18,13.84,13.84,0,0,1-4.38-3.19,10.36,10.36,0,0,1-2.13-3.53L92.92,65a3.28,3.28,0,0,1-.2-2.69,3.89,3.89,0,0,1,1.44-1.88,4.14,4.14,0,0,1,4.88.24,3.49,3.49,0,0,1,1.36,2.53A4.79,4.79,0,0,0,101,65a3.84,3.84,0,0,0,1.71,1.45c.63.32,2,.71,4.79.71a3.44,3.44,0,0,0,2.73-1.42A13.12,13.12,0,0,0,112.44,61a42.51,42.51,0,0,0,1.33-7.7,90.39,90.39,0,0,0,.31-10,10.5,10.5,0,0,0-1.35-5.58,18,18,0,0,0-3.57-4.16,37.84,37.84,0,0,0-4.76-3.48,48.19,48.19,0,0,1-5.09-3.63,19.89,19.89,0,0,1-4.15-4.66,13,13,0,0,1-1.87-6.67c-.15-3.74.5-6.78,1.93-9a11.25,11.25,0,0,1,6-4.71A16.24,16.24,0,0,1,106.4.61ZM117.26,8.8a1.88,1.88,0,0,0,.53-.07,2.77,2.77,0,0,0,1.42-.88,1.75,1.75,0,0,0,.47-1.14c0-.09,0-.25-.47-.45a35.68,35.68,0,0,0-9.66-3,16.29,16.29,0,0,0-7.58.42A8.82,8.82,0,0,0,97.2,7.38C96,9.21,95.52,11.78,95.65,15a10.62,10.62,0,0,0,1.5,5.48,17.35,17.35,0,0,0,3.66,4.1,46,46,0,0,0,4.84,3.45,40.23,40.23,0,0,1,5.06,3.7,20.26,20.26,0,0,1,4,4.71,12.83,12.83,0,0,1,1.7,6.8,93.83,93.83,0,0,1-.32,10.19,44.59,44.59,0,0,1-1.42,8.14,15.39,15.39,0,0,1-2.7,5.6,5.76,5.76,0,0,1-4.56,2.28,13.3,13.3,0,0,1-5.87-1,6.12,6.12,0,0,1-2.72-2.46A7.32,7.32,0,0,1,98,63.41a1.17,1.17,0,0,0-.48-.9,1.67,1.67,0,0,0-2-.13,1.54,1.54,0,0,0-.57.76c0,.09-.13.36.16,1l.65,2a8.12,8.12,0,0,0,1.67,2.7,11.43,11.43,0,0,0,3.64,2.62,13.13,13.13,0,0,0,6.34.94,8.64,8.64,0,0,0,6.22-2.58,16.6,16.6,0,0,0,3.64-6.51A40.52,40.52,0,0,0,118.89,54c.25-3.47.41-6.92.47-10.24A15.39,15.39,0,0,0,118,36.58a20.31,20.31,0,0,0-3.69-5.29,30.14,30.14,0,0,0-4.93-4.06,63.38,63.38,0,0,1-5.28-3.88A21.26,21.26,0,0,1,100,18.87a10.91,10.91,0,0,1-1.73-6.21c0-2.63.88-4.46,2.6-5.46,3-1.72,6.94-1.64,10.82-.42A29.91,29.91,0,0,1,116,8.43,2.64,2.64,0,0,0,117.26,8.8Z"/><path class="cls-2" d="M130.18,4.57a7,7,0,0,1,2.32-.42q2.11-.21,5.12-.42t6.55-.37q3.54-.16,6.55-.21c2,0,3.73,0,5.17,0a7.82,7.82,0,0,1,2.48.26,4.74,4.74,0,0,1,1.48,2.22A1.92,1.92,0,0,1,159,8a3.75,3.75,0,0,1-2.06.58l-2.8.11a22.77,22.77,0,0,0-2.8.26,3.66,3.66,0,0,0-2.06,1,8.47,8.47,0,0,0-.53,3.12q-.21,2.79-.26,7.07t0,9.72q0,5.44.11,11.09T148.71,52q0,5.44.05,9.77t-.11,7.13a13.67,13.67,0,0,1-.32,3.22,2.71,2.71,0,0,1-2.64,1.58,4.23,4.23,0,0,1-2.64-1,9.68,9.68,0,0,1-.26-3q-.06-2.79.05-7.18t.32-10q.21-5.6.42-11.41T144,29.8q.15-5.6.16-10T144,12.7c-.11-1.83-.3-2.82-.58-3a7.69,7.69,0,0,0-2.8-.21c-1.3.07-2.66.16-4.06.26s-2.71.19-3.91.26a3.58,3.58,0,0,1-2.43-.42,2.8,2.8,0,0,1-1-2.69A3.64,3.64,0,0,1,130.18,4.57Z"/><path class="cls-2" d="M145.89,74.92h-.27a5.38,5.38,0,0,1-3.36-1.25c-.45-.43-.6-.87-.66-3.87q-.06-2.81.05-7.23t.32-10l.42-11.4q.21-5.8.37-11.39t.16-9.95c0-2.89-.06-5.27-.16-7.06a14.37,14.37,0,0,0-.22-2,12.38,12.38,0,0,0-1.92,0c-1.29.07-2.64.16-4,.26s-2.73.19-3.93.26a4.59,4.59,0,0,1-3.26-.69A4,4,0,0,1,128,6.79a4.68,4.68,0,0,1,1.36-3.13c.29-.3.79-.48,3-.7q2.12-.21,5.15-.43t6.58-.37Q147.67,2,150.69,2t5.23,0c2.12.06,2.7.2,3.1.46A5.89,5.89,0,0,1,161,5.22,3.12,3.12,0,0,1,159.68,9a4.89,4.89,0,0,1-2.69.79l-2.8.1a22.75,22.75,0,0,0-2.66.25,2.67,2.67,0,0,0-1.28.51,15.27,15.27,0,0,0-.31,2.48c-.14,1.84-.23,4.2-.26,7s0,6.08,0,9.69L149.89,52q0,5.45.05,9.78T149.84,69c-.11,2.82-.27,3.36-.45,3.71A3.89,3.89,0,0,1,145.89,74.92Zm-1.8-2.83a3.48,3.48,0,0,0,1.68.46l.13,1.19V72.55c.4,0,.92-.11,1.41-1-.05,0,.08-.42.16-2.68q.1-2.79.11-7.09T147.52,52l-.21-22.18q-.06-5.45,0-9.74c0-2.85.13-5.26.27-7.15.21-2.75.45-3.44.87-3.86a4.81,4.81,0,0,1,2.71-1.28,24.82,24.82,0,0,1,2.95-.28l2.8-.11a2.73,2.73,0,0,0,1.41-.36c.54-.38.56-.64.42-1.07a3.8,3.8,0,0,0-1-1.56,14,14,0,0,0-1.92-.13c-1.43,0-3.14,0-5.13,0s-4.17.1-6.51.21-4.52.23-6.52.37-3.69.28-5.09.42a15.89,15.89,0,0,0-1.74.24,3.15,3.15,0,0,0-.47,1.52,1.61,1.61,0,0,0,.52,1.63,3.51,3.51,0,0,0,1.61.16l3.89-.26c1.42-.11,2.78-.2,4.09-.27a8.5,8.5,0,0,1,3.28.28c.9.45,1.2,1.41,1.35,4,.11,1.84.16,4.26.16,7.2s-.06,6.27-.16,10-.24,7.54-.37,11.42l-.42,11.4q-.21,5.59-.31,10T144,69.75C144,71.15,144.06,71.79,144.09,72.09Z"/><path class="cls-3" d="M14.26,94.46v2h3.27l-.19,1.12H14.26v11.28H12.89V97.56H10.73V96.45h2.16v-2c0-1.94,1.28-3.17,3.43-3.17a6.65,6.65,0,0,1,2.89.66l-.48,1a5.71,5.71,0,0,0-2.34-.55C15,92.37,14.26,93,14.26,94.46Z"/><path class="cls-3" d="M27.2,96.36l-.38,1.28a4.18,4.18,0,0,0-1-.12c-1.82,0-3,1.61-4,4.26l-1,7.06H19.48l1.76-12.4h1.16l-.33,3c.95-2.08,2.2-3.27,4-3.27A3.87,3.87,0,0,1,27.2,96.36Z"/><path class="cls-3" d="M29.22,104v.14c0,2.7,1.28,3.82,3.18,3.82a5.63,5.63,0,0,0,3.48-1.25l.64,1a7.07,7.07,0,0,1-4.22,1.47c-2.87,0-4.5-1.8-4.5-5,0-3.46,1.78-7.94,6.21-7.94,2.42,0,3.79,1.3,3.79,3C37.8,102.35,34.27,103.58,29.22,104Zm.07-1.07c4.6-.38,7.06-1.42,7.06-3.67,0-1-.68-1.89-2.34-1.89C31,97.33,29.62,100.26,29.29,102.89Z"/><path class="cls-3" d="M50.46,97.21l-1.33,8.93a4.83,4.83,0,0,0-.07.74,1.13,1.13,0,0,0,.78,1.26l-.37,1c-1-.21-1.69-.74-1.66-2.25A4.71,4.71,0,0,1,44,109.1c-2.49,0-3.88-1.85-3.88-4.81,0-3.34,1.71-8.1,6.38-8.1A8,8,0,0,1,50.46,97.21Zm-8.94,7.08c0,2.42,1,3.67,2.7,3.67,1.51,0,2.65-1,3.67-2.63L49,97.87a5.45,5.45,0,0,0-2.53-.57C42.85,97.3,41.53,101.43,41.53,104.29Z"/><path class="cls-3" d="M64.85,91.4l-2.46,17.45H61.2l.17-2.51a4.78,4.78,0,0,1-4.1,2.77c-2.39,0-3.82-1.85-3.82-4.88,0-3.22,1.49-8,5.8-8a3.78,3.78,0,0,1,3.3,1.7l.95-6.66Zm-10,12.89c0,2.42,1,3.67,2.58,3.67,1.82,0,3-1.4,4.14-3.41l.76-5.4a3.18,3.18,0,0,0-2.94-1.83C56,97.33,54.9,101.52,54.9,104.29Z"/><path class="cls-3" d="M77.78,102.61c0,4-2,6.49-5.26,6.49s-5.24-2.46-5.24-6.45,2-6.47,5.26-6.47S77.78,98.56,77.78,102.61Zm-9,0c0,3.48,1.4,5.28,3.77,5.28s3.81-1.78,3.81-5.33-1.4-5.26-3.79-5.26S68.75,99.1,68.75,102.66Z"/><path class="cls-3" d="M97.12,100v8.86H95.74v-8.67c0-2-.83-2.87-2.11-2.87-1.5,0-2.54,1-3.49,2.56v9H88.78v-8.67c0-2-.83-2.87-2.11-2.87-1.49,0-2.56,1-3.48,2.56v9H81.81V96.45H83l.12,2.09a4.6,4.6,0,0,1,3.82-2.35A3,3,0,0,1,90,98.65a4.73,4.73,0,0,1,3.91-2.46C95.89,96.19,97.12,97.63,97.12,100Z"/><path class="cls-3" d="M21.49,136.58l-.3,1a2.18,2.18,0,0,1-1.92-2.06,4.36,4.36,0,0,1-3.86,2.06,3.52,3.52,0,0,1-3.84-3.7c0-2.61,2-4,5.14-4h2.37v-1.21c0-2-.81-2.84-2.87-2.84a10.12,10.12,0,0,0-3.37.71l-.35-1a10.29,10.29,0,0,1,3.91-.83c2.82,0,4.05,1.4,4.05,3.94v6C20.45,135.92,20.82,136.33,21.49,136.58Zm-2.42-2.37v-3.36H16.91c-2.49,0-3.89,1-3.89,2.94a2.39,2.39,0,0,0,2.61,2.65A3.67,3.67,0,0,0,19.07,134.21Z"/><path class="cls-3" d="M32.44,126l-.64.9a5.34,5.34,0,0,0-3.27-1.13c-1.63,0-2.75.81-2.75,2.08s.78,1.75,3,2.35c2.7.71,4,1.63,4,3.74,0,2.3-2,3.6-4.48,3.6A6.47,6.47,0,0,1,23.86,136l.76-.87a5.49,5.49,0,0,0,3.65,1.3c1.8,0,3.06-.85,3.06-2.37s-.69-2-3.27-2.75-3.7-1.66-3.7-3.39c0-1.89,1.77-3.25,4.12-3.25A6.09,6.09,0,0,1,32.44,126Z"/><path class="cls-3" d="M43.44,126l-.64.9a5.34,5.34,0,0,0-3.27-1.13c-1.63,0-2.75.81-2.75,2.08s.78,1.75,3,2.35c2.7.71,4,1.63,4,3.74,0,2.3-2,3.6-4.48,3.6A6.48,6.48,0,0,1,34.87,136l.76-.87a5.5,5.5,0,0,0,3.65,1.3c1.8,0,3.06-.85,3.06-2.37s-.69-2-3.27-2.75-3.7-1.66-3.7-3.39c0-1.89,1.78-3.25,4.13-3.25A6.08,6.08,0,0,1,43.44,126Z"/><path class="cls-3" d="M56.2,131.63H47.92c.17,3.36,1.73,4.76,3.86,4.76a5.16,5.16,0,0,0,3.34-1.23l.64.88a6.12,6.12,0,0,1-4.05,1.52c-3.27,0-5.26-2.37-5.26-6.35s1.92-6.57,5-6.57c3.22,0,4.83,2.35,4.83,6C56.25,131,56.22,131.39,56.2,131.63Zm-1.3-1.42c0-2.71-1.09-4.43-3.44-4.43-1.92,0-3.39,1.44-3.56,4.78h7Z"/><path class="cls-3" d="M67.2,126l-.64.9a5.34,5.34,0,0,0-3.27-1.13c-1.63,0-2.75.81-2.75,2.08s.78,1.75,3,2.35c2.7.71,4,1.63,4,3.74,0,2.3-2,3.6-4.48,3.6A6.48,6.48,0,0,1,58.62,136l.76-.87a5.5,5.5,0,0,0,3.65,1.3c1.8,0,3.06-.85,3.06-2.37s-.69-2-3.27-2.75-3.7-1.66-3.7-3.39c0-1.89,1.78-3.25,4.13-3.25A6.08,6.08,0,0,1,67.2,126Z"/><path class="cls-3" d="M78.2,126l-.64.9a5.34,5.34,0,0,0-3.27-1.13c-1.63,0-2.75.81-2.75,2.08s.78,1.75,3,2.35c2.7.71,4,1.63,4,3.74,0,2.3-2,3.6-4.48,3.6A6.48,6.48,0,0,1,69.62,136l.76-.87a5.49,5.49,0,0,0,3.65,1.3c1.8,0,3.06-.85,3.06-2.37s-.69-2-3.27-2.75-3.7-1.66-3.7-3.39c0-1.89,1.77-3.25,4.12-3.25A6.09,6.09,0,0,1,78.2,126Z"/><path class="cls-3" d="M97.52,128.43v8.86H96.14v-8.67c0-2-.83-2.87-2.11-2.87-1.49,0-2.54,1-3.48,2.56v9H89.18v-8.67c0-2-.83-2.87-2.11-2.87-1.49,0-2.56,1-3.49,2.56v9H82.21V124.9h1.18l.12,2.09a4.61,4.61,0,0,1,3.82-2.35,3,3,0,0,1,3.06,2.46,4.72,4.72,0,0,1,3.91-2.46C96.29,124.64,97.52,126.09,97.52,128.43Z"/><path class="cls-3" d="M111.18,131.63h-8.27c.17,3.36,1.73,4.76,3.86,4.76a5.17,5.17,0,0,0,3.34-1.23l.64.88a6.12,6.12,0,0,1-4.05,1.52c-3.27,0-5.26-2.37-5.26-6.35s1.92-6.57,4.95-6.57c3.22,0,4.84,2.35,4.84,6C111.23,131,111.2,131.39,111.18,131.63Zm-1.3-1.42c0-2.71-1.09-4.43-3.44-4.43-1.92,0-3.39,1.44-3.56,4.78h7Z"/><path class="cls-3" d="M124.12,128.43v8.86h-1.37v-8.67c0-2-.83-2.87-2.35-2.87-1.68,0-2.82,1-3.84,2.56v9h-1.38V124.9h1.19l.12,2.11a5.05,5.05,0,0,1,4.17-2.37C122.92,124.64,124.12,126,124.12,128.43Z"/><path class="cls-3" d="M134.68,136.77a4.62,4.62,0,0,1-2.61.78c-1.87,0-3-1.12-3-3.27V126H127V124.9H129v-3l1.38-.17v3.13h3.2l-.17,1.12h-3v8.2c0,1.45.57,2.16,1.82,2.16a3.45,3.45,0,0,0,1.89-.57Z"/></g></g></svg>