<svg xmlns="http://www.w3.org/2000/svg" viewBox="0 0 161.2 144.1"><defs><style>.cls-1{fill:#e47e25;}.cls-2{fill:#804a97;}.cls-3{isolation:isolate;font-size:23px;fill:#1d1d1b;font-family:ArialMT, Arial;}</style></defs><title>fastfinallogo</title><g id="Layer_2" data-name="Layer 2"><g id="Layer_1-2" data-name="Layer 1"><g id="Layer_2-2" data-name="Layer 2"><g id="Layer_1-2-2" data-name="Layer 1-2"><path class="cls-1" d="M17.2,71.2a34.5,34.5,0,0,0,.1-3.7c0-1.7-.1-3.7-.2-5.7s-.2-3.8-.3-5.5a16.5,16.5,0,0,0-.4-3.1,1.2,1.2,0,0,0-1.1-.7H11c-.8,0-7.7,0-8.2-.2a1.9,1.9,0,0,1-1.2-1,3.4,3.4,0,0,1-.4-1.6A2.9,2.9,0,0,1,1.6,48a1.6,1.6,0,0,1,1.5-.7H13.9l2-.2a2.2,2.2,0,0,0,1.2-.5,9.1,9.1,0,0,0,.2-3q0-2.8-.1-6.8t-.1-8.9q0-4.9.1-9.3t.4-7.9A15.7,15.7,0,0,1,18.4,6a7.9,7.9,0,0,1,2.4-3,8.3,8.3,0,0,1,3-1.4,12.8,12.8,0,0,1,3-.4h2.6a1.8,1.8,0,0,1,1.6,1,3.8,3.8,0,0,1,.6,2A4.2,4.2,0,0,1,31.2,6a1.4,1.4,0,0,1-1.4.8H26.1a4,4,0,0,0-3,1.7,8.5,8.5,0,0,0-.6,3.4q-.2,2.9-.3,7T22.1,28v8.7q0,4,.1,6.8a23.6,23.6,0,0,0,.2,3.1c.1.4.6.7,1.4.8l2.7.2H158.9c.4,0,.6.3.8.9a5.4,5.4,0,0,1,.3,2,3.8,3.8,0,0,1-.6,1.9,1.5,1.5,0,0,1-1.6.7l-2.4-.2L25.6,52.7H23.5l-1.2.3c-.2.1-.3,1-.2,2.6s.3,3.4.5,5.4.4,4,.7,6a39.4,39.4,0,0,1,.4,4.3,2.1,2.1,0,0,1-1.1,2,3.9,3.9,0,0,1-2.3.5,4.9,4.9,0,0,1-2.2-.7A1.7,1.7,0,0,1,17.2,71.2Z"/><path class="cls-1" d="M20.7,74.8h-.5a6,6,0,0,1-2.7-.9A2.9,2.9,0,0,1,16,71.1a20.5,20.5,0,0,0,0-3.6c-.1-1.7-.1-3.7-.2-5.7s-.2-3.8-.3-5.5a14.2,14.2,0,0,0-.3-2.8h-7a54.9,54.9,0,0,1-5.9-.2A3.1,3.1,0,0,1,.6,51.7,4.6,4.6,0,0,1,0,49.6a4,4,0,0,1,.6-2.2,2.7,2.7,0,0,1,2.5-1.2h8.6a19.5,19.5,0,0,0,4-.1H16c0-.3.1-1,.1-2.2s0-4.1-.1-6.8-.1-5.7-.1-8.9,0-6.3.1-9.3.2-5.7.4-8a16.5,16.5,0,0,1,1-5.3A9.2,9.2,0,0,1,20,2,9.4,9.4,0,0,1,23.4.4,14.1,14.1,0,0,1,26.7,0h2.6A3,3,0,0,1,32,1.5a5,5,0,0,1,.8,2.6,5.4,5.4,0,0,1-.5,2.4A2.6,2.6,0,0,1,29.9,8H26.2A2.8,2.8,0,0,0,24,9.3a10.2,10.2,0,0,0-.4,2.8c-.1,1.9-.2,4.3-.3,7s-.1,5.7-.1,8.8v8.7q0,4,.1,6.7a16.7,16.7,0,0,0,.2,2.7H24c1.5.3,130.9.2,132.8.1h2.1c.5,0,1.5.2,2,1.8a6.7,6.7,0,0,1,.3,2.5,5,5,0,0,1-.8,2.5,2.7,2.7,0,0,1-2.4,1.3h-.4l-2.4-.2L25.5,53.8H23.3a15.6,15.6,0,0,0,0,1.6c.1,1.6.3,3.3.5,5.3s.4,4,.7,5.9a39.8,39.8,0,0,1,.4,4.5,3.2,3.2,0,0,1-1.7,3A5,5,0,0,1,20.7,74.8ZM13.3,51.1h2.2a2.3,2.3,0,0,1,2.1,1.5A15.3,15.3,0,0,1,18,56c.1,1.7.2,3.5.3,5.5s.1,3.9.2,5.7a37.5,37.5,0,0,1-.1,3.9c0,.2,0,.3.3.6a3.8,3.8,0,0,0,1.7.6h.3A2.7,2.7,0,0,0,22,72c.2-.1.4-.3.4-.9a38.1,38.1,0,0,0-.4-4.2q-.4-3-.7-6t-.5-5.4c-.2-2.4,0-3.2.7-3.6a3.6,3.6,0,0,1,1.8-.5h2.2l129.9.2,2.4.2c.3,0,.4,0,.5-.2a2.7,2.7,0,0,0,.4-1.3,4.2,4.2,0,0,0-.2-1.6h-1.7c-2,.1-131.6.1-133.3-.2a2.7,2.7,0,0,1-2.3-1.6,14.2,14.2,0,0,1-.3-3.4q-.1-2.8-.1-6.8V28q0-4.7.1-8.9c.1-2.8.2-5.1.3-7.1a9.1,9.1,0,0,1,.9-4.1A5.1,5.1,0,0,1,26,5.8h3.8l.2-.2a3.1,3.1,0,0,0,.3-1.4A2.6,2.6,0,0,0,30,2.8a.6.6,0,0,0-.6-.4H26.7a11.5,11.5,0,0,0-2.7.3,7,7,0,0,0-2.5,1.2,6.8,6.8,0,0,0-2,2.6,14.2,14.2,0,0,0-.8,4.4c-.2,2.3-.3,4.9-.4,7.9s-.1,6.1-.1,9.3.1,6.2.1,8.9.1,5,.1,6.8-.2,3.4-.6,3.8a3.3,3.3,0,0,1-1.8.8,21,21,0,0,1-4.5.1H2.6a1.7,1.7,0,0,0-.2.9,2.2,2.2,0,0,0,.3,1.1c.2.4.4.4.4.4s-1.7.1,5.3.1h4.9Z"/><path class="cls-2" d="M64.1,2.8l1.3.2a2.8,2.8,0,0,1,1.3.7,4.2,4.2,0,0,1,1,1.6,8.2,8.2,0,0,1,.4,3,28.4,28.4,0,0,0,.5,3.9c.4,2,.8,4.3,1.4,7.1s1.2,5.9,2,9.2l2.3,10.2,2.3,10.1,2.1,8.8,1.4,6.3q.5,2.5.6,2.8L81,68a3.6,3.6,0,0,1,.1,1.4,4.4,4.4,0,0,1-.4,1.3,2,2,0,0,1-1.2,1,2.3,2.3,0,0,1-1.6.1,3.7,3.7,0,0,1-1.4-.9,6.9,6.9,0,0,1-1.1-1.5,7.1,7.1,0,0,1-.7-1.7,14.4,14.4,0,0,1-.3-1.6l-.5-3.3-.7-4.5L72.3,53H68.9l-3.4.3-3.8.3-7.2.6c-2.1.2-3.3.5-3.3.8l-1.9,7.4c-.4,1.6-.7,2.4-.7,2.6l-.9,2.6a18.6,18.6,0,0,1-1.4,3.1,9.1,9.1,0,0,1-1.9,2.4,2.5,2.5,0,0,1-2.4.6,1.4,1.4,0,0,1-1.1-1.2,7.2,7.2,0,0,1,.1-2.6,27.3,27.3,0,0,1,.8-3.5,39.4,39.4,0,0,1,1.4-3.9c.3-.6.9-2.4,1.9-5.3L48.6,47l4.2-12.6L57,22q2-5.8,3.2-9.8l1.5-4.5q.5-1.7.9-3.4T64.1,2.8Zm-11,45.6c-.1.2,0,.4.5.5h2l3-.2,3.5-.3,6.4-.6c1.8-.2,2.7-.4,2.5-.7L69,36.5q-1-5.2-2-9.4a61.2,61.2,0,0,0-1.8-6.7Q64.3,17.8,64,18a16.2,16.2,0,0,0-1.8,2.8Q61,23.7,59.5,28t-3.2,9.8q-1.7,5.4-3.1,10.6Z"/><path class="cls-2" d="M42.5,74.2h-.9a2.6,2.6,0,0,1-1.9-2.1,8.3,8.3,0,0,1,0-3,29.1,29.1,0,0,1,.9-3.6,41.7,41.7,0,0,1,1.5-4c.3-.6.9-2.3,1.9-5.2l3.5-10.2,4.2-12.6,4.2-12.4,3.2-9.7c1.1-3.6,1.4-4.4,1.5-4.6s.6-2.1.9-3.2S63.4.7,64.1.7l1.6.2a4,4,0,0,1,1.8,1,5.4,5.4,0,0,1,1.3,2,9.3,9.3,0,0,1,.5,3.4,26.3,26.3,0,0,0,.5,3.7q.5,3,1.4,7.1t1.9,9.2l2.3,10.2,2.3,10.1,2.1,8.8,1.4,6.4.6,2.7.3,1.4a5,5,0,0,1,.1,1.8,5.8,5.8,0,0,1-.5,1.7,3.2,3.2,0,0,1-1.8,1.5,3.4,3.4,0,0,1-2.4.1,4.9,4.9,0,0,1-1.8-1.2A8.3,8.3,0,0,1,73.6,67a15.5,15.5,0,0,1-.3-1.7L72.7,62,72,57.5c-.2-1.4-.5-2.1-.7-3.6H69.5l-3.7.2c-1.3.1-9.1.1-11.2.3l-2.4.4-1.8,7a20.5,20.5,0,0,1-.8,2.8l-.8,2.5a20.3,20.3,0,0,1-1.5,3.3A10.2,10.2,0,0,1,45,73.2,3.8,3.8,0,0,1,42.5,74.2ZM64.1,3c-.2,0-.4.7-.4.8s-.6,2.3-1,3.4-1.2,3.6-1.5,4.5L58,21.5,53.9,34,49.6,46.6,46.1,56.8c-1,3-1.6,4.7-1.9,5.4A38.1,38.1,0,0,0,42.8,66a26.3,26.3,0,0,0-.8,3.3,6.3,6.3,0,0,0-.1,2.1c.1.3.1.3.2.3a1.4,1.4,0,0,0,1.3-.4,7.9,7.9,0,0,0,1.7-2.1,18.2,18.2,0,0,0,1.3-2.9l.9-2.6.7-2.5,2-7.4c.2-1.1,1.6-1.5,4.4-1.7l7.3-.6,3.8-.3,3.5-.3h2.5c.8,0,2.1,0,2.1,1.3l.8,5,.7,4.5.5,3.3a14,14,0,0,0,.3,1.5,5.9,5.9,0,0,0,.6,1.5,5.8,5.8,0,0,0,.9,1.2l.9.6a1,1,0,0,0,.8,0l.5-.4a3.2,3.2,0,0,0,.3-1,2.4,2.4,0,0,0,0-.9l-.3-1.4h0L79,63.4l-1.4-6.3-2.1-8.8L73.1,38,70.9,27.8l-2-9.3q-.9-4.2-1.4-7.1A29,29,0,0,1,67,7.2a6.9,6.9,0,0,0-.3-2.5A3,3,0,0,0,66,3.6l-.7-.4Zm-9,46.2H53.4a1.9,1.9,0,0,1-1.4-1l-.2-.6L52,47l3.1-10.5c1.1-3.6,2.2-6.9,3.2-9.8s2-5.4,2.8-7.3S63,15.9,64,15.9s1.8,1.2,2.5,3.4,1.2,4.1,1.8,6.8,1.3,5.9,2,9.4,1.3,6.9,1.9,10.5l.2.4-.3.7c-.4.7-1.2,1-3.5,1.2l-6.5.6-3.5.3-3,.2Zm-.5-2.9h1.1l12.8-.5,1.3-.2L68,35.9c-.7-3.4-1.3-6.6-1.9-9.3A58.7,58.7,0,0,0,64.3,20l-.4-1-.6,1.4q-1.2,2.8-2.7,7.2c-1,2.9-2.1,6.1-3.2,9.7S55.5,43.2,54.6,46.3Z"/><path class="cls-2" d="M94,64.6a2.3,2.3,0,0,1-.2-1.9,2.7,2.7,0,0,1,1-1.3,2.9,2.9,0,0,1,1.7-.5,2.6,2.6,0,0,1,1.7.6,2.3,2.3,0,0,1,.9,1.7,5.9,5.9,0,0,0,.7,2.2,4.9,4.9,0,0,0,2.2,2,12.4,12.4,0,0,0,5.3.8,4.6,4.6,0,0,0,3.6-1.8,14.2,14.2,0,0,0,2.5-5.2,43.2,43.2,0,0,0,1.4-7.9,92.5,92.5,0,0,0,.3-10.1,11.6,11.6,0,0,0-1.5-6.2,18.8,18.8,0,0,0-3.8-4.4,38.7,38.7,0,0,0-4.9-3.6,47.4,47.4,0,0,1-5-3.5A18.6,18.6,0,0,1,96,21.1,11.7,11.7,0,0,1,94.3,15Q94.1,9.7,96,6.7a10,10,0,0,1,5.4-4.2,17.3,17.3,0,0,1,8.1-.5,36.5,36.5,0,0,1,10,3.1,1.7,1.7,0,0,1,1.2,1.5,2.9,2.9,0,0,1-.7,1.9,4,4,0,0,1-2,1.3,3.4,3.4,0,0,1-2.6-.4,28.8,28.8,0,0,0-4.2-1.6,17.5,17.5,0,0,0-5.3-.8,9,9,0,0,0-4.6,1.2q-2,1.2-2,4.4a9.7,9.7,0,0,0,1.5,5.5,19.8,19.8,0,0,0,3.9,4.2,61.4,61.4,0,0,0,5.2,3.8,31.3,31.3,0,0,1,5.1,4.2,21.5,21.5,0,0,1,3.9,5.6,16.5,16.5,0,0,1,1.5,7.8c-.1,3.4-.2,6.8-.5,10.3a41.5,41.5,0,0,1-1.7,9.5,17.7,17.7,0,0,1-3.9,7,9.9,9.9,0,0,1-7,3,14.2,14.2,0,0,1-6.9-1.1,12.5,12.5,0,0,1-4-2.9,9.2,9.2,0,0,1-1.9-3.1Z"/><path class="cls-2" d="M106.4.6l3.5.3a38.1,38.1,0,0,1,10.3,3.2,2.8,2.8,0,0,1,1.9,2.6,4.1,4.1,0,0,1-1,2.7,5.2,5.2,0,0,1-2.6,1.6,4.6,4.6,0,0,1-3.5-.5A28.7,28.7,0,0,0,111,9c-3.3-1-6.5-1.2-8.9.2-.4.2-1.4.8-1.4,3.4a8.6,8.6,0,0,0,1.3,4.9,18.7,18.7,0,0,0,3.7,4,60.1,60.1,0,0,0,5.1,3.7,32.9,32.9,0,0,1,5.3,4.4,22.7,22.7,0,0,1,4.1,5.9,17.7,17.7,0,0,1,1.6,8.3c-.1,3.4-.2,6.8-.5,10.4a42.8,42.8,0,0,1-1.7,9.7,18.9,18.9,0,0,1-4.2,7.4,11.1,11.1,0,0,1-7.8,3.3,15.6,15.6,0,0,1-7.5-1.2,13.8,13.8,0,0,1-4.4-3.2,10.4,10.4,0,0,1-2.1-3.5L92.9,65a3.3,3.3,0,0,1-.2-2.7,3.9,3.9,0,0,1,1.4-1.9,4.1,4.1,0,0,1,4.9.2,3.5,3.5,0,0,1,1.4,2.5A4.8,4.8,0,0,0,101,65a3.8,3.8,0,0,0,1.7,1.4,11.5,11.5,0,0,0,4.8.7,3.4,3.4,0,0,0,2.7-1.4,13.1,13.1,0,0,0,2.3-4.7,42.5,42.5,0,0,0,1.3-7.7,90.6,90.6,0,0,0,.3-10,10.5,10.5,0,0,0-1.4-5.6,18,18,0,0,0-3.6-4.2,37.8,37.8,0,0,0-4.8-3.5,48.1,48.1,0,0,1-5.1-3.6A19.9,19.9,0,0,1,95,21.7,12.9,12.9,0,0,1,93.1,15c-.1-3.7.5-6.8,1.9-9a11.2,11.2,0,0,1,6-4.7A16.2,16.2,0,0,1,106.4.6Zm10.9,8.2h.5a2.8,2.8,0,0,0,1.4-.9,1.8,1.8,0,0,0,.5-1.1c0-.1,0-.2-.5-.5a35.7,35.7,0,0,0-9.7-3,16.3,16.3,0,0,0-7.6.4,8.8,8.8,0,0,0-4.8,3.7C96,9.2,95.5,11.8,95.6,15a10.6,10.6,0,0,0,1.5,5.5,17.3,17.3,0,0,0,3.7,4.1,46.1,46.1,0,0,0,4.8,3.4,40.3,40.3,0,0,1,5.1,3.7,20.2,20.2,0,0,1,4,4.7,12.8,12.8,0,0,1,1.7,6.8,94,94,0,0,1-.3,10.2,44.6,44.6,0,0,1-1.4,8.1,15.4,15.4,0,0,1-2.7,5.6,5.8,5.8,0,0,1-4.6,2.3,13.3,13.3,0,0,1-5.9-1,6.1,6.1,0,0,1-2.7-2.5,7.3,7.3,0,0,1-.8-2.7,1.2,1.2,0,0,0-.5-.9,1.7,1.7,0,0,0-2-.1,1.5,1.5,0,0,0-.6.8,1.5,1.5,0,0,0,.2,1l.6,2a8.1,8.1,0,0,0,1.7,2.7,11.4,11.4,0,0,0,3.6,2.6,13.1,13.1,0,0,0,6.3.9,8.6,8.6,0,0,0,6.2-2.6,16.6,16.6,0,0,0,3.6-6.5,40.5,40.5,0,0,0,1.6-9.2c.3-3.5.4-6.9.5-10.2a15.4,15.4,0,0,0-1.4-7.2,20.3,20.3,0,0,0-3.7-5.3,30.2,30.2,0,0,0-4.9-4.1,63.2,63.2,0,0,1-5.3-3.9,21.2,21.2,0,0,1-4.1-4.5,10.9,10.9,0,0,1-1.7-6.2c0-2.6.9-4.5,2.6-5.5s6.9-1.6,10.8-.4A29.8,29.8,0,0,1,116,8.4,2.6,2.6,0,0,0,117.3,8.8Z"/><path class="cls-2" d="M130.2,4.6a6.9,6.9,0,0,1,2.3-.4l5.1-.4,6.5-.4,6.5-.2h5.2a7.8,7.8,0,0,1,2.5.3,4.7,4.7,0,0,1,1.5,2.2,1.9,1.9,0,0,1-.8,2.4,3.8,3.8,0,0,1-2.1.6h-2.8l-2.8.3a3.7,3.7,0,0,0-2.1,1,8.5,8.5,0,0,0-.5,3.1q-.2,2.8-.3,7.1t0,9.7q0,5.4.1,11.1t.1,11.1q0,5.4.1,9.8t-.1,7.1a13.7,13.7,0,0,1-.3,3.2,2.7,2.7,0,0,1-2.6,1.6,4.2,4.2,0,0,1-2.6-1,9.7,9.7,0,0,1-.3-3q-.1-2.8.1-7.2t.3-10l.4-11.4.4-11.4q.2-5.6.2-10c0-2.9-.1-5.3-.2-7.1s-.3-2.8-.6-3a7.7,7.7,0,0,0-2.8-.2l-4.1.3-3.9.3a3.6,3.6,0,0,1-2.4-.4,2.8,2.8,0,0,1-1-2.7A3.7,3.7,0,0,1,130.2,4.6Z"/><path class="cls-2" d="M145.9,74.9h-.3a5.4,5.4,0,0,1-3.4-1.3c-.4-.4-.6-.9-.7-3.9s0-4.3.1-7.2.2-6.3.3-10l.4-11.4.4-11.4q.2-5.6.2-9.9c0-2.9-.1-5.3-.2-7.1a14.2,14.2,0,0,0-.2-2h-1.9l-4,.3-3.9.3a4.6,4.6,0,0,1-3.3-.7A4,4,0,0,1,128,6.8a4.7,4.7,0,0,1,1.4-3.1c.3-.3.8-.5,3-.7l5.2-.4,6.6-.4,6.6-.2H156c2.1.1,2.7.2,3.1.5A5.9,5.9,0,0,1,161,5.2,3.1,3.1,0,0,1,159.7,9a4.9,4.9,0,0,1-2.7.8h-2.8l-2.7.2a2.7,2.7,0,0,0-1.3.5,15.2,15.2,0,0,0-.3,2.5c-.1,1.8-.2,4.2-.3,7s0,6.1,0,9.7l.2,22.2q0,5.4.1,9.8t-.1,7.2a13,13,0,0,1-.4,3.7A3.9,3.9,0,0,1,145.9,74.9Zm-1.8-2.8a3.5,3.5,0,0,0,1.7.5h0c.4,0,.9-.1,1.4-1s.1-.4.2-2.7.1-4.2.1-7.1,0-6.1-.1-9.8l-.2-22.2q-.1-5.4,0-9.7a68.8,68.8,0,0,1,.3-7.1c.2-1.8.4-3.4.9-3.9a4.8,4.8,0,0,1,2.7-1.3l2.9-.3h2.8a2.7,2.7,0,0,0,1.4-.4c.5-.4.6-.6.4-1.1a3.8,3.8,0,0,0-1-1.6h-7l-6.5.2-6.5.4-5.1.4-1.7.2a3.2,3.2,0,0,0-.5,1.5,1.6,1.6,0,0,0,.5,1.6,3.5,3.5,0,0,0,1.6.2l3.9-.3,4.1-.3a8.5,8.5,0,0,1,3.3.3c.9.5,1.2,1.4,1.3,4s.2,4.3.2,7.2-.1,6.3-.2,10-.2,7.5-.4,11.4l-.4,11.4q-.2,5.6-.3,10t-.1,7.1c.2,1.4.3,2.1.3,2.4Z"/><text class="cls-3" transform="translate(8.7 136.6)">assessment</text><text class="cls-3" transform="translate(8.3 107.3)">reading</text></g></g></g></g></svg>