<svg xmlns="http://www.w3.org/2000/svg" viewBox="0 0 244.6 113.7"><defs><style>.cls-1{fill:#e57e22;}.cls-2{fill:#7f4996;}</style></defs><title>fastlogofinal</title><g id="Layer_2" data-name="Layer 2"><g id="Layer_1-2" data-name="Layer 1"><path class="cls-1" d="M26.1,108.1c.1-1.1.1-3,.1-5.7s-.1-5.6-.2-8.7-.2-5.8-.4-8.3a25,25,0,0,0-.6-4.7,1.8,1.8,0,0,0-1.7-1.1l-3.1-.2H16.7c-1.2.1-11.7,0-12.5-.2a2.9,2.9,0,0,1-1.8-1.5,5.2,5.2,0,0,1-.6-2.5,4.4,4.4,0,0,1,.6-2.3,2.4,2.4,0,0,1,2.2-1H21.1l3-.2a3.4,3.4,0,0,0,1.8-.7q.3-.3.3-4.5T26,56.2Q26,50,25.9,42.7T26,28.6c.1-4.5.3-8.5.6-12a23.7,23.7,0,0,1,1.4-7.4,12.1,12.1,0,0,1,3.6-4.6A12.5,12.5,0,0,1,36,2.4a19.4,19.4,0,0,1,4.6-.6h4A2.8,2.8,0,0,1,47,3.3a5.8,5.8,0,0,1,.9,3,6.4,6.4,0,0,1-.6,2.9,2.2,2.2,0,0,1-2.1,1.3,39.7,39.7,0,0,0-5.5.1,6.1,6.1,0,0,0-4.6,2.6q-.6.8-1,5.2T33.7,29q-.2,6.2-.2,13.4V55.6q0,6.1.2,10.3a36,36,0,0,0,.3,4.7c.2.6.9,1.1,2.2,1.3a23.8,23.8,0,0,0,4.1.3H241.1c.5,0,1,.5,1.3,1.4a8.2,8.2,0,0,1,.4,3,5.8,5.8,0,0,1-.9,2.9,2.3,2.3,0,0,1-2.4,1.1l-3.7-.3-197-.2H35.7a4.2,4.2,0,0,0-1.8.4c-.3.2-.4,1.5-.2,3.9s.4,5.1.7,8.2.7,6.1,1,9.1a59.4,59.4,0,0,1,.6,6.6,3.1,3.1,0,0,1-1.6,3,5.9,5.9,0,0,1-3.4.7,7.4,7.4,0,0,1-3.4-1.1A2.6,2.6,0,0,1,26.1,108.1Z"/><path class="cls-1" d="M31.4,113.6h-.7a9.1,9.1,0,0,1-4.2-1.4,4.4,4.4,0,0,1-2.2-4.3c.1-1,.1-2.8.1-5.5s-.1-5.6-.2-8.6-.2-5.8-.4-8.3a21.5,21.5,0,0,0-.5-4.3H12.7c-1.2,0-7.9,0-9-.3A4.7,4.7,0,0,1,.9,78.5,7,7,0,0,1,0,75.2a6.1,6.1,0,0,1,.9-3.3A4.1,4.1,0,0,1,4.7,70h13a29.4,29.4,0,0,0,6-.1h.5c0-.5.1-1.5.1-3.3s0-6.2-.1-10.3-.1-8.6-.2-13.5,0-9.6.1-14.2.3-8.6.6-12.1.8-6.4,1.5-8a14,14,0,0,1,4.2-5.3A14.3,14.3,0,0,1,35.5.6a21.4,21.4,0,0,1,5-.6h4a4.5,4.5,0,0,1,4,2.3,7.6,7.6,0,0,1,1.1,4,8.2,8.2,0,0,1-.8,3.7,4,4,0,0,1-3.7,2.3,36.7,36.7,0,0,0-5.4.1,4.3,4.3,0,0,0-3.3,1.9s-.4.8-.6,4.3-.4,6.5-.5,10.6-.2,8.6-.2,13.3V55.6q0,6.1.2,10.2c.1,2.7.2,3.7.2,4.1h.8c2.3.4,198.7.3,201.5.2h3.2c.8,0,2.2.3,3,2.7a10.2,10.2,0,0,1,.5,3.7,7.6,7.6,0,0,1-1.2,3.7,4.1,4.1,0,0,1-3.6,2h-.5l-3.7-.3-197-.2H35.3a23.5,23.5,0,0,0,.1,2.4q.2,3.6.7,8.1t1,9a60.3,60.3,0,0,1,.6,6.8,4.9,4.9,0,0,1-2.5,4.5A7.6,7.6,0,0,1,31.4,113.6Zm-11.2-36,3.3.2a3.5,3.5,0,0,1,3.2,2.3,23.1,23.1,0,0,1,.6,5.2c.2,2.5.3,5.3.4,8.4s.2,5.9.2,8.7a57.6,57.6,0,0,1-.1,5.9c0,.2,0,.5.5.9a5.7,5.7,0,0,0,2.6.9h.4a4.1,4.1,0,0,0,2-.5c.4-.2.7-.5.7-1.4a57.5,57.5,0,0,0-.5-6.3q-.6-4.5-1-9.1t-.7-8.2c-.2-3.6,0-4.8,1-5.5a5.4,5.4,0,0,1,2.7-.7h3.3c1.2.1,195.8.1,197.1.2l3.7.3c.5,0,.6-.1.7-.3a4.1,4.1,0,0,0,.6-2,6.4,6.4,0,0,0-.3-2.4v-.2H238c-3,.1-199.7.2-202.2-.3s-3.1-1.2-3.6-2.5-.2-.7-.4-5.1q-.2-4.2-.2-10.3V42.4q0-7.2.2-13.4c.1-4.2.3-7.8.5-10.7s.8-5.5,1.3-6.2a7.8,7.8,0,0,1,5.8-3.3,41.1,41.1,0,0,1,5.8-.1c.2,0,.3,0,.4-.3a4.7,4.7,0,0,0,.4-2.1,4,4,0,0,0-.6-2.1,1,1,0,0,0-.9-.6h-4a17.6,17.6,0,0,0-4.1.5A10.6,10.6,0,0,0,32.6,6a10.3,10.3,0,0,0-3.1,4c-.4.8-.9,2.7-1.2,6.7s-.5,7.5-.6,11.9-.1,9.2-.1,14,.1,9.4.2,13.5.1,7.6.1,10.4c0,4.5-.2,5.1-.9,5.8a5,5,0,0,1-2.7,1.2,32,32,0,0,1-6.8.2H4.7c-.2,0-.6,0-.7.2a2.5,2.5,0,0,0-.4,1.4A3.4,3.4,0,0,0,4,76.8c.3.5.6.6.7.6s-2.6.2,8,.2h7.5Z"/><path class="cls-2" d="M97.3,4.2l2,.2a4.2,4.2,0,0,1,1.9,1,6.4,6.4,0,0,1,1.5,2.4,12.5,12.5,0,0,1,.6,4.5,43,43,0,0,0,.8,5.9q.8,4.5,2.1,10.8c.9,4.2,1.8,8.9,3,14l3.4,15.5q1.8,7.9,3.5,15.3l3.1,13.3q1.4,5.8,2.2,9.6t1,4.2c.1.6.2,1.3.4,2a5.5,5.5,0,0,1,.1,2.1,6.7,6.7,0,0,1-.6,2,3,3,0,0,1-1.8,1.5,3.4,3.4,0,0,1-2.4.1,5.6,5.6,0,0,1-2.1-1.4,10.7,10.7,0,0,1-2.7-4.8,21.6,21.6,0,0,1-.5-2.5l-.8-5L111,88.3l-1.3-7.9c0-.1-.5-.2-1.5-.2h-3.7l-5.1.4-5.8.5-11,1c-3.3.3-4.9.7-5.1,1.3q-1.9,7.7-2.9,11.3c-.6,2.4-1,3.7-1.1,3.9l-1.4,3.9a28.3,28.3,0,0,1-2.2,4.7,13.9,13.9,0,0,1-3,3.7,3.9,3.9,0,0,1-3.6,1,2.2,2.2,0,0,1-1.6-1.8,10.9,10.9,0,0,1,.1-3.9,41.3,41.3,0,0,1,1.3-5.3,60.3,60.3,0,0,1,2.2-5.9q.6-1.4,2.9-8l5.3-15.5L80,52.4l6.3-18.8q3-8.7,4.9-14.8t2.2-6.9q.8-2.6,1.4-5.1T97.3,4.2ZM80.7,73.4c-.2.3,0,.6.8.7a12.8,12.8,0,0,0,3,.2l4.5-.2,5.3-.5,9.8-.9c2.8-.3,4.1-.6,3.8-1q-1.4-8.2-3-16.1t-3-14.2c-1-4.2-1.9-7.6-2.7-10.2s-1.6-3.9-2.1-3.9-1.6,1.4-2.8,4.3-2.6,6.5-4.2,11S87.1,52,85.4,57.4,82.2,68.2,80.7,73.4Z"/><path class="cls-2" d="M64.5,112.6l-1.4-.2a3.9,3.9,0,0,1-2.9-3.2,12.6,12.6,0,0,1,.1-4.6,44.2,44.2,0,0,1,1.3-5.5A62.9,62.9,0,0,1,63.8,93c.4-.9,1.4-3.6,2.8-7.9l5.3-15.5,6.4-19.1,6.3-18.8q3-8.7,4.9-14.8c1.7-5.5,2.1-6.6,2.3-7s.9-3.2,1.4-4.9C94,1.5,96.2,1,97.3,1l2.4.3a6.1,6.1,0,0,1,2.7,1.5,8.2,8.2,0,0,1,2,3.1,14,14,0,0,1,.8,5.2,39.9,39.9,0,0,0,.8,5.6q.8,4.5,2.1,10.8t3,14l3.4,15.5q1.8,7.8,3.5,15.3l3.1,13.3q1.4,5.9,2.2,9.6c.5,2.4.8,3.7.9,4.1s.3,1.5.4,2.2a7.5,7.5,0,0,1,.1,2.8,8.7,8.7,0,0,1-.8,2.5,4.8,4.8,0,0,1-2.7,2.3,5.1,5.1,0,0,1-3.7.1,7.4,7.4,0,0,1-2.7-1.8,12.6,12.6,0,0,1-3.2-5.6,24.3,24.3,0,0,1-.5-2.6l-.8-5-1.1-6.8c-.3-2.1-.7-3.3-1.1-5.5h-2.6c-1.5,0-3.8,0-5.7.3s-13.8.2-17,.5a21.2,21.2,0,0,0-3.6.6C78,88,77.1,91.6,76.5,93.9a31.1,31.1,0,0,1-1.2,4.2L74,101.9a30.8,30.8,0,0,1-2.3,5,15.6,15.6,0,0,1-3.4,4.2A5.8,5.8,0,0,1,64.5,112.6ZM97.3,4.6c-.3,0-.6,1-.7,1.2-.4,1.7-.9,3.5-1.5,5.2s-1.8,5.4-2.3,6.9Q91,24,88.1,32.8L81.7,51.6,75.3,70.7,70,86.2c-1.6,4.6-2.5,7.2-2.9,8.2a57.6,57.6,0,0,0-2.1,5.7,40,40,0,0,0-1.2,5.1,9.4,9.4,0,0,0-.1,3.3c.1.4.2.4.3.5a2.1,2.1,0,0,0,2-.6,12,12,0,0,0,2.6-3.2,27.5,27.5,0,0,0,2-4.4l1.4-3.9c.2-.5.5-1.7,1.1-3.8s1.6-6.2,2.9-11.3c.3-1.7,2.4-2.2,6.6-2.6l11-1,5.7-.5,5.3-.4h3.7c1.1,0,3.3,0,3.3,2l1.3,7.6,1.1,6.8.8,5a21.2,21.2,0,0,0,.4,2.2,8.9,8.9,0,0,0,.9,2.3,8.8,8.8,0,0,0,1.4,1.9,3.8,3.8,0,0,0,1.4.9,1.6,1.6,0,0,0,1.2-.1,1.4,1.4,0,0,0,.8-.6,4.9,4.9,0,0,0,.5-1.5,3.6,3.6,0,0,0-.1-1.4c-.2-.7-.3-1.4-.4-2.1h0s-.2-.6-.9-4.2-1.3-5.7-2.2-9.6L114.5,73q-1.8-7.5-3.5-15.3l-3.4-15.6q-1.7-7.7-3-14.1t-2.1-10.9a43.9,43.9,0,0,1-.8-6.2,10.5,10.5,0,0,0-.5-3.8A4.5,4.5,0,0,0,100,5.4a2.5,2.5,0,0,0-1.1-.6ZM83.6,74.7l-2.5-.2A2.8,2.8,0,0,1,78.9,73l-.4-.9.4-.7q2.2-7.8,4.7-15.9C85.3,50,87,45,88.5,40.6s3-8.2,4.2-11.1,2.9-5.4,4.5-5.4,2.7,1.8,3.8,5.2,1.8,6.1,2.8,10.3,2,9,3,14.2,2,10.5,2.9,15.9l.3.6-.5,1c-.6,1-1.8,1.4-5.2,1.8l-9.8.9-5.3.5-4.5.2Zm-.7-4.4h1.6c1.3-.1,16.6-.5,19.4-.8l2-.3q-1.3-7.5-2.7-14.8c-1-5.2-2-10-3-14.1s-1.8-7.4-2.7-10L97,28.8l-1,2.1c-1.2,2.8-2.6,6.5-4.1,10.9s-3.1,9.3-4.8,14.8S84.2,65.5,82.9,70.3Z"/><path class="cls-2" d="M142.7,98.1a3.5,3.5,0,0,1-.3-2.9,4.2,4.2,0,0,1,1.5-2,4.4,4.4,0,0,1,2.6-.7,3.9,3.9,0,0,1,2.6,1,3.5,3.5,0,0,1,1.4,2.6,8.9,8.9,0,0,0,1,3.4,7.4,7.4,0,0,0,3.4,3q2.5,1.3,8.1,1.3a7,7,0,0,0,5.5-2.8,21.6,21.6,0,0,0,3.8-7.8,65.6,65.6,0,0,0,2.1-12,140.5,140.5,0,0,0,.5-15.3,17.6,17.6,0,0,0-2.3-9.4,28.6,28.6,0,0,0-5.8-6.7,58.9,58.9,0,0,0-7.5-5.4,72.3,72.3,0,0,1-7.5-5.4,28.4,28.4,0,0,1-5.9-6.6,17.8,17.8,0,0,1-2.6-9.2q-.3-8,2.6-12.7a15.2,15.2,0,0,1,8.2-6.4,26.3,26.3,0,0,1,12.3-.7,55.4,55.4,0,0,1,15.1,4.7,2.5,2.5,0,0,1,1.8,2.3,4.5,4.5,0,0,1-1.1,2.9,6.1,6.1,0,0,1-3,1.9,5.2,5.2,0,0,1-4-.6,43.5,43.5,0,0,0-6.3-2.4,26.6,26.6,0,0,0-8-1.3,13.7,13.7,0,0,0-7,1.8q-3,1.8-3,6.7a14.7,14.7,0,0,0,2.3,8.4,30,30,0,0,0,5.9,6.4,93.2,93.2,0,0,0,7.9,5.8,47.4,47.4,0,0,1,7.8,6.4,32.7,32.7,0,0,1,5.9,8.5,25,25,0,0,1,2.2,11.8q-.1,7.7-.7,15.6a62.9,62.9,0,0,1-2.6,14.3,26.8,26.8,0,0,1-5.9,10.6q-3.9,4.2-10.7,4.5t-10.5-1.6a19,19,0,0,1-6.1-4.4,13.9,13.9,0,0,1-2.9-4.7Z"/><path class="cls-2" d="M161.5.9a37.4,37.4,0,0,1,5.3.4,57.8,57.8,0,0,1,15.6,4.9,4.3,4.3,0,0,1,2.8,4,6.2,6.2,0,0,1-1.5,4,7.8,7.8,0,0,1-3.9,2.5,7,7,0,0,1-5.4-.7,43.8,43.8,0,0,0-6-2.3c-5-1.6-9.9-1.8-13.5.3-.5.3-2.2,1.2-2.2,5.2a13,13,0,0,0,2,7.4,28.4,28.4,0,0,0,5.6,6,91.2,91.2,0,0,0,7.7,5.7,50,50,0,0,1,8.1,6.7,34.4,34.4,0,0,1,6.3,9,26.9,26.9,0,0,1,2.4,12.6c-.1,5.1-.3,10.4-.7,15.7A64.9,64.9,0,0,1,181.4,97a28.7,28.7,0,0,1-6.3,11.3c-2.9,3.1-6.9,4.8-11.9,5.1s-8.5-.4-11.4-1.8a21,21,0,0,1-6.6-4.8,15.7,15.7,0,0,1-3.2-5.4l-.9-2.7a5,5,0,0,1-.3-4.1,5.9,5.9,0,0,1,2.2-2.8,6.3,6.3,0,0,1,7.4.4,5.3,5.3,0,0,1,2.1,3.8,7.3,7.3,0,0,0,.8,2.7,5.8,5.8,0,0,0,2.6,2.2c1,.5,3,1.1,7.3,1.1a5.2,5.2,0,0,0,4.1-2.2,19.9,19.9,0,0,0,3.4-7.2,64.5,64.5,0,0,0,2-11.7,137.7,137.7,0,0,0,.5-15.1,15.9,15.9,0,0,0-2.1-8.5,27.2,27.2,0,0,0-5.4-6.3,57.3,57.3,0,0,0-7.2-5.3,73,73,0,0,1-7.7-5.5,30.2,30.2,0,0,1-6.3-7.1A19.7,19.7,0,0,1,141.6,23c-.2-5.7.8-10.3,2.9-13.7a17.1,17.1,0,0,1,9.1-7.1A24.6,24.6,0,0,1,161.5.9ZM178,13.4h.8a4.2,4.2,0,0,0,2.1-1.3,2.7,2.7,0,0,0,.7-1.7c0-.1,0-.4-.7-.7a54.3,54.3,0,0,0-14.7-4.6,24.7,24.7,0,0,0-11.5.6,13.4,13.4,0,0,0-7.2,5.7c-1.8,2.8-2.6,6.7-2.4,11.6a16.1,16.1,0,0,0,2.3,8.3,26.3,26.3,0,0,0,5.6,6.2,70.5,70.5,0,0,0,7.3,5.2,60.5,60.5,0,0,1,7.7,5.6,30.7,30.7,0,0,1,6.1,7.1,19.5,19.5,0,0,1,2.6,10.3,142.3,142.3,0,0,1-.5,15.5,67.7,67.7,0,0,1-2.2,12.4A23.4,23.4,0,0,1,170,102a8.7,8.7,0,0,1-6.9,3.5c-4.1,0-7-.5-8.9-1.5a9.3,9.3,0,0,1-4.1-3.7,11.1,11.1,0,0,1-1.2-4,1.8,1.8,0,0,0-.7-1.4,2.5,2.5,0,0,0-3.1-.2,2.3,2.3,0,0,0-.9,1.2c-.1.1-.2.5.2,1.4l1,3a12.3,12.3,0,0,0,2.5,4.1,17.3,17.3,0,0,0,5.5,4c2.3,1.1,5.6,1.6,9.6,1.4s7.1-1.5,9.4-3.9a25.2,25.2,0,0,0,5.5-9.9A61.5,61.5,0,0,0,180.4,82c.4-5.3.6-10.5.7-15.5a23.4,23.4,0,0,0-2.1-10.9,30.8,30.8,0,0,0-5.6-8,45.7,45.7,0,0,0-7.5-6.2,96.1,96.1,0,0,1-8-5.9,32.3,32.3,0,0,1-6.3-6.8,16.6,16.6,0,0,1-2.6-9.4c0-4,1.3-6.8,3.9-8.3,4.5-2.6,10.5-2.5,16.4-.6a45.2,45.2,0,0,1,6.6,2.5A4,4,0,0,0,178,13.4Z"/><path class="cls-2" d="M197.6,6.9c.2-.2,1.4-.4,3.5-.6l7.8-.6,9.9-.6,9.9-.3h7.8a11.9,11.9,0,0,1,3.8.4,7.2,7.2,0,0,1,2.2,3.4,2.9,2.9,0,0,1-1.3,3.7,5.7,5.7,0,0,1-3.1.9l-4.3.2-4.2.4a5.5,5.5,0,0,0-3.1,1.4c-.3.3-.6,1.9-.8,4.7s-.4,6.4-.4,10.7-.1,9.2,0,14.7.1,11.1.2,16.8.1,11.3.2,16.8.1,10.4.1,14.8-.1,8-.2,10.8a20.9,20.9,0,0,1-.5,4.9,4.1,4.1,0,0,1-4,2.4,6.4,6.4,0,0,1-4-1.4q-.3-.3-.4-4.6t.1-10.9q.2-6.7.5-15.1l.6-17.3q.3-8.8.6-17.3t.2-15.1q0-6.7-.2-10.8c-.2-2.8-.5-4.3-.9-4.5a11.7,11.7,0,0,0-4.2-.3l-6.2.4-5.9.4c-1.8.1-3-.1-3.7-.6a4.3,4.3,0,0,1-1.4-4.1A5.5,5.5,0,0,1,197.6,6.9Z"/><path class="cls-2" d="M221.4,113.7H221a8.1,8.1,0,0,1-5.1-1.9c-.7-.7-.9-1.3-1-5.9q-.1-4.3.1-11t.5-15.2l.6-17.3q.3-8.8.6-17.3t.2-15.1c0-4.4-.1-8-.2-10.7a21.7,21.7,0,0,0-.3-3.1h-2.9l-6.1.4-6,.4c-2.3.1-3.9-.2-4.9-1.1a6,6,0,0,1-2.1-5.7c.3-2.2,1-3.8,2.1-4.8s1.2-.7,4.5-1.1l7.8-.6,10-.6,10-.3h7.9c3.2.1,4.1.3,4.7.7a8.9,8.9,0,0,1,2.9,4.3,4.7,4.7,0,0,1-1.9,5.8,7.4,7.4,0,0,1-4.1,1.2l-4.3.2-4,.4a4.1,4.1,0,0,0-1.9.8,23.3,23.3,0,0,0-.5,3.8c-.2,2.8-.3,6.4-.4,10.6s-.1,9.2,0,14.7l.3,33.6q.1,8.3.1,14.8t-.2,10.9c-.2,4.3-.4,5.1-.7,5.6A5.9,5.9,0,0,1,221.4,113.7Zm-2.7-4.3a5.3,5.3,0,0,0,2.5.7l.2,1.8v-1.8c.6,0,1.4-.2,2.1-1.5s.1-.6.2-4.1.2-6.4.2-10.8,0-9.3-.1-14.8l-.3-33.7q-.1-8.3,0-14.8c.1-4.3.2-8,.4-10.8s.7-5.2,1.3-5.9a7.3,7.3,0,0,1,4.1-1.9l4.5-.4,4.2-.2a4.1,4.1,0,0,0,2.1-.5c.8-.6.9-1,.6-1.6a5.8,5.8,0,0,0-1.4-2.4l-2.9-.2h-7.8l-9.9.3-9.9.6-7.7.6-2.6.4a4.8,4.8,0,0,0-.7,2.3,2.4,2.4,0,0,0,.8,2.5,5.3,5.3,0,0,0,2.4.2l5.9-.4,6.2-.4a12.9,12.9,0,0,1,5,.4c1.4.7,1.8,2.1,2,6.1s.2,6.5.2,10.9-.1,9.5-.2,15.2-.4,11.4-.6,17.3l-.6,17.3q-.3,8.5-.5,15.1t-.1,10.8C218.5,108,218.6,109,218.7,109.4Z"/></g></g></svg>