<?xml version="1.0" encoding="utf-8"?>
<!-- Generator: Adobe Illustrator 16.0.0, SVG Export Plug-In . SVG Version: 6.00 Build 0)  -->
<!DOCTYPE svg PUBLIC "-//W3C//DTD SVG 1.1//EN" "http://www.w3.org/Graphics/SVG/1.1/DTD/svg11.dtd">
<svg version="1.1" id="Layer_1" xmlns="http://www.w3.org/2000/svg" xmlns:xlink="http://www.w3.org/1999/xlink" x="0px" y="0px"
	 width="566.929px" height="566.929px" viewBox="0 0 566.929 566.929" enable-background="new 0 0 566.929 566.929"
	 xml:space="preserve">
<g>
	<g>
		<path fill="#E47E25" d="M220.091,288.979c0.069-0.699,0.083-1.955,0.051-3.746c-0.037-1.797-0.088-3.696-0.158-5.701
			c-0.068-2.01-0.156-3.84-0.264-5.492c-0.105-1.653-0.227-2.695-0.37-3.116c-0.14-0.422-0.509-0.668-1.106-0.742
			c-0.603-0.068-1.287-0.105-2.061-0.105s-1.552,0.022-2.325,0.055c-0.773,0.037-7.72-0.018-8.211-0.157
			c-0.495-0.144-0.88-0.477-1.162-1.005c-0.282-0.527-0.421-1.069-0.421-1.635c0-0.564,0.139-1.074,0.421-1.533
			c0.282-0.458,0.773-0.685,1.478-0.685c0.703,0,7.756,0.019,8.529,0.051c0.773,0.037,1.533,0.056,2.274,0.056
			c0.736,0,1.39-0.056,1.954-0.162c0.561-0.106,0.949-0.26,1.158-0.473c0.143-0.139,0.213-1.125,0.213-2.954
			c0-1.834-0.02-4.104-0.056-6.813c-0.037-2.714-0.069-5.687-0.106-8.924c-0.033-3.237-0.014-6.335,0.055-9.294
			c0.07-2.955,0.19-5.599,0.371-7.919c0.172-2.325,0.477-3.941,0.898-4.858c0.635-1.334,1.422-2.357,2.375-3.061
			c0.949-0.704,1.937-1.176,2.955-1.426c1.02-0.246,2.023-0.371,3.01-0.371s1.867,0,2.641,0c0.703,0,1.25,0.315,1.639,0.954
			c0.385,0.63,0.579,1.301,0.579,2.005c0,0.704-0.144,1.338-0.421,1.899c-0.283,0.565-0.742,0.843-1.371,0.843
			c-1.199-0.065-2.418-0.051-3.645,0.056c-1.232,0.102-2.236,0.685-3.01,1.741c-0.283,0.352-0.496,1.496-0.635,3.431
			c-0.145,1.94-0.25,4.279-0.315,7.025c-0.073,2.741-0.106,5.682-0.106,8.817c0,3.13,0,6.034,0,8.711
			c0,2.676,0.033,4.928,0.106,6.756c0.065,1.834,0.14,2.854,0.208,3.066c0.14,0.421,0.617,0.703,1.427,0.843
			c0.811,0.144,1.709,0.208,2.69,0.208c0.986,0,129.361-0.014,130.31-0.051s1.641-0.051,2.061-0.051
			c0.354,0,0.635,0.314,0.848,0.949c0.209,0.635,0.297,1.301,0.26,2.005c-0.031,0.704-0.227,1.339-0.578,1.899
			c-0.352,0.564-0.881,0.811-1.584,0.74c-0.777-0.069-1.584-0.139-2.428-0.213c-0.846-0.064-129.059-0.12-129.837-0.157
			c-0.773-0.032-1.459-0.032-2.057,0c-0.602,0.037-1.004,0.125-1.217,0.264c-0.209,0.144-0.264,1.005-0.158,2.589
			c0.107,1.584,0.264,3.381,0.477,5.386c0.209,2.006,0.441,3.996,0.686,5.965c0.246,1.973,0.371,3.418,0.371,4.33
			c0,0.916-0.356,1.569-1.057,1.954c-0.703,0.389-1.463,0.546-2.273,0.477c-0.805-0.069-1.547-0.319-2.218-0.741
			C220.317,290.248,220.021,289.687,220.091,288.979z"/>
		<path fill="#E47E25" d="M223.573,292.609c-0.158,0-0.314-0.004-0.473-0.018c-0.996-0.089-1.922-0.394-2.746-0.922
			c-1.047-0.657-1.561-1.653-1.445-2.812c0.065-0.639,0.079-1.856,0.047-3.603c-0.037-1.788-0.088-3.687-0.152-5.683
			c-0.074-1.996-0.162-3.815-0.27-5.459c-0.134-2.163-0.268-2.705-0.311-2.82c-0.685,0.019-1.319-0.032-2.041-0.032
			c-0.756,0-1.516,0.022-2.27,0.055c-0.158,0.005-1.162,0.014-2.668,0.014c-0.773,0-5.182-0.004-5.928-0.217
			c-0.796-0.227-1.449-0.778-1.88-1.589c-0.37-0.69-0.56-1.431-0.56-2.19c0-0.787,0.203-1.514,0.602-2.153
			c0.343-0.569,1.061-1.25,2.482-1.25c0.213,0,7.747,0.014,8.586,0.051c1.449,0.069,2.922,0.106,3.954-0.083
			c0.144-0.028,0.259-0.057,0.343-0.084c0.027-0.328,0.061-0.963,0.061-2.181c0-1.829-0.02-4.094-0.056-6.798
			c-0.037-2.709-0.069-5.687-0.106-8.924c-0.033-3.205-0.014-6.349,0.055-9.336c0.07-2.987,0.195-5.673,0.375-7.979
			c0.186-2.478,0.51-4.201,1.001-5.266c0.723-1.523,1.649-2.7,2.751-3.52c1.064-0.792,2.204-1.338,3.376-1.625
			c1.116-0.269,2.223-0.403,3.292-0.403h2.641c1.125,0,2.041,0.523,2.648,1.519c0.5,0.82,0.755,1.704,0.755,2.625
			c0,0.885-0.186,1.7-0.546,2.427c-0.486,0.968-1.348,1.5-2.432,1.5c-1.311-0.07-2.371-0.051-3.547,0.051
			c-0.895,0.074-1.58,0.477-2.154,1.26c-0.014,0.028-0.24,0.523-0.407,2.82c-0.14,1.908-0.245,4.251-0.311,6.965
			c-0.073,2.737-0.106,5.668-0.106,8.79v8.711c0,2.658,0.033,4.895,0.102,6.71c0.07,1.797,0.125,2.454,0.153,2.69
			c0.046-0.023,0.208,0.047,0.505,0.098c1.496,0.264,130.925,0.208,132.751,0.139c0.973-0.037,1.676-0.051,2.105-0.051
			c0.516,0,1.455,0.227,1.969,1.755c0.26,0.778,0.365,1.603,0.324,2.45c-0.041,0.898-0.301,1.731-0.76,2.463
			c-0.527,0.844-1.365,1.307-2.357,1.311l-0.352-0.018l-2.408-0.213c-0.828-0.065-129.027-0.116-129.791-0.153
			c-0.723-0.032-1.371-0.032-1.937,0c-0.12,0.009-0.218,0.019-0.301,0.027c-0.009,0.292-0.009,0.773,0.046,1.562
			c0.107,1.569,0.26,3.348,0.469,5.339c0.213,2,0.439,3.982,0.685,5.941c0.255,2.043,0.38,3.506,0.38,4.479
			c0,1.338-0.593,2.403-1.672,2.991C225.277,292.397,224.444,292.609,223.573,292.609z M216.183,268.89
			c0.824,0,1.555,0.041,2.194,0.115c1.431,0.172,1.927,1.037,2.099,1.537c0.119,0.371,0.277,1.084,0.426,3.418
			c0.105,1.667,0.199,3.506,0.268,5.529c0.07,2.01,0.121,3.918,0.158,5.72c0.037,1.866,0.019,3.135-0.056,3.885
			c-0.019,0.158-0.032,0.334,0.347,0.574c0.506,0.32,1.074,0.505,1.686,0.561l0.27,0.01c0.473,0,0.907-0.111,1.328-0.344
			c0.232-0.129,0.445-0.324,0.445-0.916c0-0.861-0.121-2.27-0.361-4.182c-0.25-1.978-0.477-3.974-0.689-5.988
			c-0.213-2.023-0.371-3.834-0.478-5.433c-0.157-2.371-0.005-3.189,0.681-3.648c0.408-0.273,0.959-0.412,1.802-0.463
			c0.644-0.037,1.361-0.037,2.181,0c0.797,0.037,129.019,0.088,129.88,0.157l2.436,0.213c0.305,0,0.379-0.032,0.477-0.185
			c0.246-0.395,0.375-0.83,0.398-1.33c0.033-0.555-0.037-1.083-0.199-1.574c-0.018-0.056-0.037-0.102-0.051-0.139
			c-0.412,0.009-0.973,0.023-1.686,0.051c-1.986,0.074-131.58,0.12-133.251-0.176c-1.273-0.218-2.061-0.773-2.348-1.64
			c-0.069-0.208-0.162-0.478-0.268-3.39c-0.074-1.844-0.107-4.108-0.107-6.803v-8.711c0-3.145,0.033-6.094,0.107-8.85
			c0.064-2.751,0.176-5.131,0.318-7.076c0.195-2.714,0.496-3.594,0.885-4.084c0.954-1.306,2.256-2.052,3.84-2.186
			c1.287-0.111,2.561-0.125,3.811-0.056c0.121-0.004,0.167-0.032,0.246-0.189c0.193-0.398,0.296-0.857,0.296-1.371
			c0-0.486-0.134-0.94-0.407-1.389c-0.195-0.32-0.381-0.384-0.625-0.384h-2.641c-0.885,0-1.801,0.111-2.732,0.338
			c-0.861,0.208-1.713,0.621-2.523,1.228c-0.787,0.583-1.468,1.463-2.014,2.616c-0.246,0.533-0.584,1.746-0.787,4.437
			c-0.172,2.269-0.297,4.913-0.367,7.858c-0.068,2.964-0.088,6.076-0.055,9.253c0.037,3.237,0.069,6.21,0.105,8.919
			c0.037,2.719,0.057,4.992,0.057,6.831c0,2.94-0.162,3.394-0.561,3.792c-0.389,0.39-0.954,0.645-1.778,0.802
			c-1.241,0.231-2.866,0.204-4.501,0.125c-0.77-0.032-7.428-0.051-8.475-0.051c-0.116,0-0.398,0.009-0.463,0.12
			c-0.172,0.273-0.25,0.569-0.25,0.912c0,0.371,0.092,0.723,0.281,1.074c0.186,0.353,0.367,0.403,0.44,0.422
			c0.69,0.061-1.714,0.129,5.274,0.129c1.432,0,2.391-0.004,2.557-0.014C214.599,268.913,215.39,268.89,216.183,268.89z"/>
	</g>
	<g>
		<path fill="#804A97" d="M267.016,220.552c0.422,0,0.861,0.055,1.32,0.157c0.458,0.106,0.879,0.338,1.264,0.69
			c0.389,0.352,0.723,0.88,1.006,1.584c0.281,0.704,0.421,1.686,0.421,2.955c0,0.634,0.176,1.94,0.528,3.908
			c0.352,1.968,0.811,4.349,1.375,7.127c0.561,2.783,1.213,5.858,1.954,9.244c0.736,3.375,1.495,6.793,2.269,10.239
			c0.773,3.45,1.547,6.812,2.325,10.087c0.773,3.273,1.459,6.195,2.056,8.761c0.598,2.57,1.074,4.682,1.427,6.34
			c0.353,1.653,0.565,2.584,0.635,2.793c0.069,0.426,0.157,0.865,0.264,1.324s0.12,0.917,0.052,1.371
			c-0.07,0.458-0.209,0.898-0.422,1.319c-0.209,0.427-0.598,0.741-1.162,0.954c-0.565,0.209-1.094,0.227-1.584,0.051
			c-0.491-0.176-0.949-0.477-1.371-0.898s-0.792-0.917-1.111-1.477c-0.314-0.565-0.542-1.126-0.686-1.691
			c-0.069-0.213-0.176-0.754-0.314-1.635c-0.145-0.879-0.315-1.968-0.528-3.273s-0.458-2.802-0.741-4.487
			c-0.277-1.69-0.564-3.418-0.842-5.178c0-0.069-0.32-0.106-0.955-0.106c-0.629,0-1.439,0.023-2.426,0.056
			c-0.986,0.037-2.112,0.121-3.381,0.264c-1.264,0.139-2.533,0.246-3.797,0.315c-2.678,0.213-5.09,0.421-7.234,0.634
			c-2.148,0.213-3.26,0.491-3.33,0.848c-0.842,3.376-1.477,5.858-1.898,7.442c-0.421,1.584-0.671,2.445-0.74,2.588
			c-0.209,0.631-0.51,1.496-0.898,2.585c-0.385,1.093-0.861,2.135-1.427,3.116c-0.561,0.986-1.213,1.797-1.949,2.432
			c-0.741,0.629-1.533,0.843-2.376,0.629c-0.565-0.139-0.917-0.541-1.061-1.213c-0.139-0.666-0.12-1.527,0.056-2.584
			c0.176-1.056,0.459-2.218,0.848-3.486c0.385-1.27,0.856-2.57,1.422-3.909c0.282-0.63,0.912-2.39,1.902-5.279
			c0.982-2.885,2.145-6.298,3.483-10.244c1.338-3.94,2.746-8.131,4.223-12.563c1.478-4.437,2.871-8.572,4.173-12.406
			c1.302-3.839,2.376-7.095,3.219-9.771c0.847-2.672,1.339-4.186,1.481-4.538c0.352-1.125,0.667-2.251,0.949-3.381
			C265.715,221.117,266.242,220.552,267.016,220.552z M256.035,266.171c-0.143,0.213,0.033,0.371,0.529,0.477
			c0.49,0.107,1.157,0.139,2.004,0.107c0.844-0.037,1.83-0.094,2.955-0.162c1.125-0.07,2.287-0.172,3.487-0.315
			c2.464-0.213,4.608-0.407,6.441-0.583c1.825-0.176,2.673-0.403,2.533-0.686c-0.634-3.59-1.288-7.127-1.954-10.61
			c-0.667-3.487-1.32-6.604-1.955-9.35c-0.629-2.742-1.23-4.979-1.791-6.706c-0.565-1.723-1.023-2.584-1.376-2.584
			c-0.421,0-1.037,0.949-1.848,2.848c-0.811,1.903-1.728,4.316-2.746,7.233c-1.019,2.922-2.075,6.178-3.167,9.767
			C258.055,259.202,257.018,262.721,256.035,266.171z"/>
		<path fill="#804A97" d="M245.356,291.957c-0.301,0-0.605-0.042-0.912-0.116c-1.004-0.25-1.689-1.005-1.926-2.121
			c-0.172-0.824-0.158-1.811,0.041-3.023c0.186-1.103,0.482-2.324,0.885-3.641c0.394-1.301,0.889-2.652,1.463-4.02
			c0.27-0.602,0.895-2.348,1.871-5.205l3.487-10.239c1.334-3.936,2.742-8.127,4.219-12.559c1.482-4.437,2.871-8.576,4.178-12.416
			c1.297-3.825,2.365-7.071,3.209-9.744c1.139-3.598,1.402-4.353,1.514-4.631c0.311-1.009,0.621-2.111,0.898-3.218
			c0.561-2.25,1.955-2.589,2.732-2.589c0.51,0,1.047,0.065,1.584,0.19c0.658,0.148,1.26,0.477,1.801,0.963
			c0.523,0.477,0.949,1.139,1.307,2.019c0.343,0.856,0.505,1.968,0.505,3.399c0,0.32,0.069,1.227,0.509,3.696
			c0.353,1.968,0.807,4.334,1.371,7.104c0.561,2.779,1.213,5.849,1.949,9.225s1.492,6.789,2.27,10.234
			c0.773,3.445,1.542,6.802,2.32,10.072c0.773,3.274,1.459,6.196,2.057,8.767c0.602,2.58,1.078,4.701,1.43,6.358
			c0.334,1.552,0.53,2.44,0.602,2.672c0.107,0.583,0.195,0.996,0.297,1.427c0.135,0.593,0.158,1.203,0.07,1.814
			c-0.094,0.589-0.273,1.148-0.537,1.677c-0.348,0.694-0.955,1.209-1.802,1.528c-0.829,0.314-1.648,0.334-2.408,0.056
			c-0.644-0.227-1.255-0.62-1.806-1.167c-0.496-0.5-0.936-1.084-1.307-1.736c-0.365-0.662-0.639-1.329-0.801-1.986
			c-0.056-0.153-0.181-0.756-0.338-1.737l-0.527-3.27c-0.214-1.301-0.459-2.797-0.742-4.482c-0.23-1.407-0.486-2.148-0.717-3.604
			c-0.611,0-0.773,0.023-1.7,0.057c-0.958,0.031-2.487,0.031-3.724,0.171c-1.287,0.144-9.066,0.134-11.207,0.347
			c-1.412,0.14-2.092,0.283-2.398,0.376c-0.801,3.195-1.394,5.524-1.801,7.039c-0.658,2.468-0.756,2.667-0.82,2.801
			c-0.152,0.491-0.453,1.367-0.842,2.465c-0.412,1.157-0.922,2.273-1.52,3.311c-0.621,1.093-1.366,2.015-2.209,2.736
			C247.107,291.618,246.26,291.957,245.356,291.957z M267.016,220.807c-0.227,0-0.398,0.658-0.431,0.792
			c-0.292,1.148-0.611,2.297-0.968,3.445c-0.218,0.537-1.172,3.552-1.486,4.543c-0.843,2.686-1.922,5.946-3.223,9.794
			c-1.307,3.834-2.695,7.97-4.174,12.402c-1.477,4.436-2.889,8.627-4.223,12.573l-3.487,10.244
			c-1.027,3.005-1.645,4.714-1.939,5.376c-0.538,1.273-1.001,2.547-1.371,3.77c-0.375,1.218-0.648,2.343-0.815,3.339
			c-0.147,0.903-0.167,1.625-0.06,2.148c0.06,0.273,0.125,0.292,0.18,0.307c0.482,0.12,0.875,0,1.32-0.385
			c0.635-0.542,1.203-1.25,1.695-2.111c0.522-0.918,0.977-1.904,1.338-2.928c0.384-1.078,0.681-1.939,0.89-2.564
			c0.125-0.315,0.347-1.121,0.717-2.516c0.426-1.584,1.057-4.061,1.898-7.428c0.223-1.125,1.584-1.464,4.358-1.741
			c2.153-0.213,4.575-0.422,7.261-0.635c1.27-0.068,2.516-0.176,3.761-0.314c1.302-0.144,2.454-0.231,3.469-0.269
			c1-0.032,1.825-0.056,2.468-0.056c0.75,0,2.141,0,2.141,1.292c0.264,1.569,0.546,3.298,0.824,4.982
			c0.281,1.691,0.531,3.187,0.74,4.492l0.533,3.27c0.125,0.783,0.208,1.265,0.272,1.459c0.134,0.537,0.329,1.01,0.593,1.482
			c0.26,0.463,0.57,0.875,0.912,1.223c0.301,0.296,0.607,0.5,0.926,0.611c0.251,0.092,0.482,0.068,0.773-0.042
			c0.273-0.103,0.449-0.228,0.52-0.37c0.157-0.315,0.26-0.631,0.311-0.973c0.051-0.315,0.037-0.616-0.033-0.922
			c-0.111-0.486-0.208-0.954-0.282-1.403c0,0.005,0,0.009,0,0.009c-0.009,0-0.13-0.421-0.62-2.746
			c-0.352-1.648-0.824-3.75-1.422-6.316c-0.598-2.565-1.283-5.483-2.057-8.757c-0.777-3.279-1.551-6.646-2.329-10.1
			c-0.773-3.45-1.532-6.868-2.269-10.249c-0.742-3.385-1.395-6.469-1.959-9.262c-0.565-2.788-1.023-5.173-1.381-7.15
			c-0.365-2.052-0.546-3.399-0.546-4.117c0-1.38-0.181-2.13-0.339-2.519c-0.264-0.662-0.522-0.986-0.699-1.144
			c-0.236-0.217-0.477-0.347-0.73-0.407C267.701,220.853,267.35,220.807,267.016,220.807z M257.967,267.019
			c-0.657,0-1.199-0.047-1.652-0.144c-0.273-0.061-1.107-0.236-1.418-0.996l-0.231-0.583l0.259-0.482
			c0.978-3.422,2.006-6.914,3.09-10.479c1.102-3.612,2.172-6.914,3.182-9.813c1.032-2.945,1.963-5.404,2.777-7.308
			c1.121-2.635,1.891-3.571,2.937-3.571c1.167,0,1.778,1.195,2.501,3.404c0.574,1.76,1.189,4.052,1.824,6.808
			c0.635,2.765,1.297,5.923,1.964,9.387c0.657,3.437,1.302,6.924,1.922,10.461l0.204,0.403l-0.307,0.667
			c-0.375,0.681-1.18,0.954-3.454,1.172c-1.834,0.176-3.983,0.37-6.451,0.583c-1.181,0.14-2.366,0.25-3.515,0.319
			c-1.135,0.07-2.125,0.121-2.978,0.158C258.389,267.014,258.171,267.019,257.967,267.019z M257.477,264.115
			c0.166,0.01,0.338,0.015,0.527,0.015l0.551-0.01c0.834-0.037,10.953-0.36,12.781-0.532c0.607-0.061,1.033-0.121,1.324-0.167
			c-0.578-3.288-1.18-6.534-1.791-9.729c-0.662-3.436-1.315-6.566-1.945-9.304c-0.621-2.686-1.213-4.909-1.77-6.608
			c-0.134-0.417-0.254-0.75-0.361-1.014c-0.171,0.324-0.384,0.773-0.639,1.38c-0.791,1.853-1.709,4.26-2.719,7.159
			c-1.004,2.867-2.064,6.136-3.153,9.721C259.291,258.29,258.379,260.97,257.477,264.115z"/>
	</g>
	<g>
		<path fill="#804A97" d="M296.918,282.398c-0.352-0.704-0.422-1.338-0.213-1.898c0.213-0.565,0.547-1.005,1.004-1.324
			c0.459-0.315,1.023-0.473,1.691-0.473c0.666,0,1.25,0.213,1.74,0.634c0.566,0.422,0.881,1.001,0.949,1.742
			c0.07,0.736,0.301,1.477,0.691,2.213c0.383,0.741,1.125,1.395,2.213,1.955c1.094,0.564,2.871,0.848,5.334,0.848
			c1.408,0,2.621-0.617,3.645-1.849c1.02-1.231,1.844-2.959,2.479-5.173c0.639-2.218,1.094-4.857,1.375-7.923
			c0.277-3.062,0.385-6.424,0.314-10.082c0-2.469-0.508-4.524-1.527-6.178c-1.02-1.658-2.287-3.135-3.803-4.436
			c-1.514-1.301-3.148-2.501-4.912-3.589c-1.76-1.093-3.414-2.273-4.965-3.538c-1.547-1.269-2.848-2.732-3.904-4.381
			c-1.055-1.658-1.621-3.681-1.689-6.076c-0.139-3.519,0.439-6.298,1.746-8.34c1.301-2.042,3.098-3.45,5.381-4.223
			c2.291-0.778,5-0.936,8.131-0.472c3.135,0.454,6.461,1.491,9.98,3.112c0.777,0.352,1.162,0.861,1.162,1.533
			c0,0.667-0.246,1.301-0.74,1.898c-0.492,0.598-1.164,1.019-2.006,1.269c-0.844,0.246-1.723,0.121-2.641-0.371
			c-0.986-0.495-2.375-1.023-4.172-1.583c-1.791-0.565-3.557-0.848-5.279-0.848s-3.256,0.389-4.594,1.163s-2.006,2.255-2.006,4.437
			c0,2.181,0.516,4.029,1.533,5.543c1.02,1.515,2.32,2.922,3.904,4.224s3.311,2.57,5.178,3.802c1.865,1.232,3.57,2.64,5.121,4.224
			c1.547,1.583,2.848,3.45,3.904,5.599c1.057,2.144,1.551,4.733,1.477,7.762c-0.064,3.376-0.227,6.808-0.471,10.294
			c-0.246,3.483-0.811,6.637-1.691,9.452c-0.879,2.815-2.182,5.136-3.908,6.97c-1.723,1.829-4.066,2.815-7.021,2.954
			c-2.885,0.144-5.191-0.208-6.918-1.056c-1.723-0.843-3.061-1.811-4.01-2.903c-0.949-1.094-1.584-2.131-1.898-3.112
			C297.182,283.204,296.987,282.612,296.918,282.398z"/>
		<path fill="#804A97" d="M309.278,218.389c1.104,0,2.279,0.093,3.496,0.269c3.232,0.473,6.701,1.552,10.301,3.209
			c1.611,0.732,1.852,1.95,1.852,2.612c0,0.949-0.344,1.843-1.01,2.653c-0.645,0.778-1.51,1.334-2.584,1.649
			c-1.152,0.338-2.352,0.176-3.537-0.458c-0.898-0.449-2.242-0.958-3.965-1.5c-3.266-1.023-6.539-1.171-8.924,0.213
			c-0.352,0.204-1.418,0.82-1.418,3.409c0,1.926,0.445,3.57,1.33,4.881c0.949,1.408,2.186,2.746,3.678,3.969
			c1.541,1.269,3.25,2.524,5.074,3.728c1.922,1.274,3.709,2.747,5.316,4.386c1.631,1.667,3.016,3.654,4.121,5.904
			c1.135,2.311,1.678,5.108,1.598,8.313c-0.064,3.353-0.227,6.84-0.477,10.351c-0.25,3.562-0.838,6.835-1.74,9.72
			c-0.928,2.974-2.334,5.475-4.174,7.428c-1.936,2.057-4.57,3.173-7.83,3.33c-3.066,0.144-5.59-0.245-7.498-1.176
			c-1.857-0.912-3.33-1.982-4.381-3.187c-1.055-1.213-1.773-2.403-2.135-3.533l-0.578-1.783c-0.441-0.856-0.529-1.815-0.195-2.694
			c0.297-0.788,0.777-1.422,1.436-1.876c1.354-0.936,3.496-0.959,4.881,0.236c0.764,0.564,1.256,1.458,1.357,2.528
			c0.055,0.574,0.24,1.172,0.561,1.778c0.268,0.514,0.842,1,1.709,1.449c0.629,0.324,1.973,0.714,4.787,0.714
			c1.047,0,1.941-0.464,2.732-1.422c0.908-1.094,1.664-2.691,2.252-4.742c0.611-2.131,1.061-4.724,1.334-7.702
			c0.277-3.014,0.379-6.362,0.309-9.956c0-2.251-0.453-4.117-1.352-5.576c-0.953-1.542-2.152-2.94-3.566-4.159
			c-1.467-1.264-3.07-2.431-4.76-3.478c-1.807-1.121-3.52-2.343-5.094-3.631c-1.635-1.343-3.033-2.908-4.154-4.663
			c-1.168-1.829-1.797-4.075-1.875-6.673c-0.148-3.742,0.5-6.78,1.93-9.016c1.445-2.265,3.465-3.849,6.002-4.71
			C305.639,218.658,307.383,218.389,309.278,218.389z M320.137,226.582c0.182,0,0.352-0.023,0.529-0.074
			c0.615-0.181,1.078-0.472,1.416-0.884c0.32-0.38,0.473-0.755,0.473-1.144c0-0.088,0-0.245-0.469-0.454
			c-3.398-1.565-6.645-2.579-9.658-3.019c-2.928-0.431-5.484-0.292-7.578,0.421c-2.041,0.69-3.602,1.913-4.77,3.737
			c-1.162,1.824-1.686,4.399-1.555,7.659c0.064,2.182,0.568,4.02,1.504,5.483c0.982,1.542,2.215,2.922,3.658,4.103
			c1.492,1.222,3.121,2.38,4.84,3.45c1.793,1.107,3.492,2.353,5.057,3.696c1.598,1.375,2.959,2.959,4.039,4.709
			c1.129,1.838,1.703,4.126,1.703,6.803c0.07,3.654-0.037,7.09-0.318,10.188c-0.287,3.131-0.764,5.867-1.418,8.141
			c-0.676,2.367-1.584,4.252-2.703,5.604c-1.256,1.515-2.789,2.279-4.559,2.279c-2.676,0-4.598-0.32-5.875-0.978
			c-1.307-0.677-2.225-1.505-2.725-2.459c-0.457-0.88-0.73-1.77-0.818-2.653c-0.037-0.408-0.186-0.686-0.477-0.903
			c-0.719-0.611-1.557-0.473-2.047-0.135c-0.26,0.181-0.441,0.422-0.57,0.765c-0.033,0.088-0.135,0.356,0.162,0.953l0.648,1.959
			c0.264,0.824,0.828,1.732,1.666,2.7c0.844,0.968,2.066,1.848,3.641,2.616c1.537,0.756,3.686,1.07,6.336,0.936
			c2.666-0.125,4.699-0.968,6.219-2.584c1.594-1.689,2.816-3.881,3.641-6.506c0.846-2.714,1.398-5.803,1.635-9.184
			c0.25-3.474,0.406-6.919,0.471-10.239c0.07-2.82-0.389-5.247-1.355-7.21c-0.992-2.024-2.232-3.807-3.688-5.293
			c-1.486-1.519-3.145-2.885-4.926-4.062c-1.895-1.25-3.668-2.557-5.275-3.876c-1.668-1.371-3.057-2.876-4.141-4.479
			c-1.148-1.708-1.732-3.797-1.732-6.205c0-2.626,0.877-4.464,2.6-5.46c2.959-1.718,6.936-1.644,10.822-0.421
			c1.871,0.583,3.293,1.125,4.348,1.653C319.35,226.466,319.762,226.582,320.137,226.582z"/>
	</g>
	<g>
		<path fill="#804A97" d="M333.053,222.349c0.139-0.139,0.912-0.282,2.32-0.421c1.408-0.139,3.117-0.282,5.121-0.421
			c2.006-0.144,4.191-0.269,6.549-0.371c2.357-0.106,4.543-0.176,6.549-0.213c2.004-0.037,3.732-0.037,5.172,0
			c1.445,0.037,2.27,0.125,2.482,0.264c0.635,0.496,1.125,1.232,1.477,2.218c0.354,0.986,0.074,1.792-0.842,2.427
			c-0.496,0.356-1.182,0.546-2.057,0.583c-0.885,0.033-1.814,0.07-2.801,0.106c-0.986,0.033-1.918,0.121-2.799,0.26
			c-0.883,0.144-1.568,0.463-2.061,0.954c-0.207,0.208-0.383,1.25-0.527,3.116c-0.139,1.862-0.23,4.219-0.264,7.071
			c-0.037,2.853-0.037,6.09,0,9.716c0.033,3.626,0.068,7.322,0.105,11.087c0.033,3.77,0.07,7.465,0.107,11.091
			c0.033,3.626,0.051,6.882,0.051,9.767s-0.037,5.261-0.105,7.127c-0.07,1.866-0.178,2.94-0.316,3.223
			c-0.635,1.126-1.514,1.654-2.639,1.584c-1.131-0.069-2.01-0.389-2.641-0.953c-0.143-0.14-0.23-1.145-0.264-3.011
			c-0.037-1.861-0.018-4.256,0.051-7.178c0.07-2.923,0.176-6.247,0.32-9.979c0.139-3.733,0.277-7.53,0.422-11.406
			c0.139-3.867,0.264-7.669,0.369-11.401c0.102-3.732,0.158-7.058,0.158-9.979c0-2.922-0.057-5.298-0.158-7.127
			c-0.105-1.834-0.305-2.816-0.582-2.959c-0.566-0.208-1.496-0.278-2.799-0.208c-1.301,0.069-2.658,0.158-4.064,0.264
			c-1.408,0.106-2.715,0.194-3.908,0.259c-1.201,0.074-2.006-0.065-2.428-0.421c-0.777-0.634-1.092-1.533-0.953-2.69
			C332.243,223.562,332.557,222.77,333.053,222.349z"/>
		<path fill="#804A97" d="M348.77,292.707l-0.268-0.009c-1.395-0.084-2.523-0.506-3.357-1.251c-0.445-0.435-0.602-0.866-0.658-3.871
			c-0.037-1.876-0.018-4.288,0.051-7.229c0.07-2.926,0.176-6.261,0.32-9.998l0.422-11.401c0.139-3.867,0.264-7.664,0.369-11.392
			c0.102-3.719,0.158-7.035,0.158-9.947c0-2.895-0.057-5.27-0.158-7.063c-0.064-1.116-0.152-1.708-0.217-2.014
			c-0.328-0.042-1.023-0.079-1.918-0.037c-1.291,0.069-2.639,0.162-4.033,0.264c-1.422,0.106-2.732,0.194-3.932,0.264
			c-1.541,0.088-2.584-0.134-3.26-0.694c-0.75-0.616-1.607-1.774-1.367-3.751c0.182-1.477,0.627-2.5,1.363-3.13
			c0.287-0.296,0.791-0.481,2.973-0.699c1.416-0.139,3.135-0.283,5.154-0.426c2.018-0.139,4.209-0.264,6.58-0.371
			c2.367-0.106,4.561-0.176,6.576-0.213c2.027-0.032,3.77-0.032,5.229,0c2.115,0.056,2.703,0.199,3.102,0.463
			c0.891,0.685,1.516,1.611,1.941,2.806c0.527,1.486,0.061,2.871-1.283,3.802c-0.676,0.482-1.557,0.741-2.686,0.792l-2.803,0.102
			c-0.926,0.033-1.82,0.121-2.658,0.25c-0.545,0.088-0.977,0.259-1.281,0.509c-0.061,0.223-0.186,0.853-0.307,2.478
			c-0.143,1.843-0.23,4.2-0.264,6.998c-0.037,2.848-0.037,6.076,0,9.692l0.213,22.173c0.033,3.631,0.051,6.891,0.051,9.78
			c0,2.903-0.037,5.298-0.105,7.174c-0.107,2.82-0.27,3.361-0.445,3.709C351.225,292.327,349.793,292.707,348.77,292.707z
			 M346.969,289.873c0.395,0.255,0.963,0.417,1.676,0.458l0.125,1.19v-1.186c0.398,0,0.918-0.111,1.414-0.986
			c-0.053,0.037,0.078-0.417,0.162-2.681c0.068-1.857,0.105-4.219,0.105-7.086c0-2.881-0.018-6.136-0.051-9.757l-0.213-22.178
			c-0.037-3.63-0.037-6.877,0-9.739c0.033-2.848,0.125-5.256,0.268-7.15c0.209-2.75,0.445-3.436,0.871-3.862
			c0.672-0.671,1.584-1.102,2.709-1.283c0.941-0.148,1.932-0.241,2.945-0.278l2.797-0.106c0.631-0.027,1.121-0.152,1.414-0.361
			c0.545-0.375,0.564-0.644,0.416-1.065c-0.246-0.685-0.564-1.213-0.955-1.565c-0.193-0.037-0.703-0.098-1.916-0.13
			c-1.426-0.032-3.141-0.032-5.127,0c-1.996,0.037-4.168,0.102-6.512,0.208c-2.348,0.106-4.523,0.231-6.52,0.371
			c-1.992,0.139-3.691,0.282-5.09,0.417c-1.055,0.107-1.537,0.195-1.74,0.241c-0.162,0.218-0.361,0.635-0.469,1.519
			c-0.119,0.973,0.219,1.385,0.523,1.635c0.014,0.009,0.463,0.222,1.607,0.158c1.189-0.07,2.486-0.158,3.891-0.26
			c1.416-0.106,2.777-0.199,4.088-0.269c1.506-0.079,2.543,0.009,3.279,0.283c0.902,0.454,1.199,1.413,1.348,4.001
			c0.105,1.838,0.162,4.256,0.162,7.197c0,2.931-0.057,6.27-0.158,10.012c-0.105,3.737-0.236,7.539-0.375,11.415l-0.422,11.402
			c-0.139,3.728-0.244,7.048-0.314,9.966c-0.068,2.902-0.088,5.279-0.051,7.127C346.881,288.928,346.936,289.577,346.969,289.873z"
			/>
	</g>
</g>
<text transform="matrix(1 0 0 1 211.6074 354.3403)" fill="#1D1D1B" font-family="'FiraSans-Light'" font-size="23">assessment</text>
<text transform="matrix(1 0 0 1 211.187 325.1284)" fill="#1D1D1B" font-family="'FiraSans-Light'" font-size="23">reading</text>
</svg>
