<svg id="Capa_1" data-name="Capa 1" xmlns="http://www.w3.org/2000/svg" viewBox="0 0 512 364"><defs><style>.cls-1{fill:#fff;}</style></defs><title>mail</title><path class="cls-1" d="M414.5,355.1a8.2,8.2,0,0,1-5.6-2.2l-95-89.1a8.3,8.3,0,1,1,11.3-12l95,89.1a8.3,8.3,0,0,1-5.7,14.3Z" transform="translate(0 -74)"/><path class="cls-1" d="M97.4,355.1a8.3,8.3,0,0,1-5.7-14.3l95-89.1a8.3,8.3,0,1,1,11.3,12l-95,89.1A8.2,8.2,0,0,1,97.4,355.1Z" transform="translate(0 -74)"/><path class="cls-1" d="M470.7,438H41.3A41.3,41.3,0,0,1,0,396.7V115.3A41.3,41.3,0,0,1,41.3,74H470.7A41.3,41.3,0,0,1,512,115.3V396.7A41.3,41.3,0,0,1,470.7,438ZM41.3,90.5a24.8,24.8,0,0,0-24.8,24.8V396.7a24.8,24.8,0,0,0,24.8,24.8H470.7a24.8,24.8,0,0,0,24.8-24.8V115.3a24.8,24.8,0,0,0-24.8-24.8Z" transform="translate(0 -74)"/><path class="cls-1" d="M256,297.5a46.2,46.2,0,0,1-30.3-10.9L13.7,101.6A8.3,8.3,0,1,1,24.5,89.2l212,184.9c10.5,9.2,28.4,9.2,38.9,0L487.2,89.5A8.3,8.3,0,1,1,498,101.9L286.3,286.5A46.1,46.1,0,0,1,256,297.5Z" transform="translate(0 -74)"/></svg>