<svg xmlns="http://www.w3.org/2000/svg" width="105" height="105" viewBox="0 0 105 105">
    <defs>
        <linearGradient id="a" x1="50%" x2="50%" y1="0%" y2="100%">
            <stop offset="0%" stop-color="#FFF"/>
            <stop offset="100%" stop-color="#D8EEEB"/>
        </linearGradient>
    </defs>
    <g fill="none" fill-rule="evenodd" transform="translate(0 .212)">
        <circle cx="52.294" cy="52.294" r="52.294" fill="#DBDBDB"/>
        <circle cx="52.991" cy="51.596" r="48.807" fill="url(#a)"/>
        <path fill="#727272" d="M52.06 30.679c-3.602 0-7.204 2.702-7.204 7.205v14.41c0 4.502 3.602 7.204 7.205 7.204s7.205-2.702 7.205-7.205v-14.41c0-4.502-3.603-7.204-7.205-7.204zM64.67 48.69c-1.802 0-1.802 0-1.802 1.801v1.801c0 6.304-4.503 10.807-10.807 10.807s-10.807-4.502-10.807-10.807v-1.801c0-1.802 0-1.802-1.801-1.802-1.802 0-1.802 0-1.802 1.802v1.801c0 7.205 4.503 12.609 12.609 14.41v5.403c0 1.8 0 1.8 1.801 1.8s1.801 0 1.801-1.8v-5.404c8.105-1.8 12.609-7.204 12.609-14.409v-1.801c0-1.801 0-1.801-1.802-1.801z"/>
    </g>
</svg>
