<svg xmlns="http://www.w3.org/2000/svg" viewBox="0 0 512 512"><defs><style>.cls-1{fill:#fff;}</style></defs><title>phonecall</title><g id="Layer_2" data-name="Layer 2"><g id="Layer_1-2" data-name="Layer 1"><path class="cls-1" d="M511.65,421.41a39.28,39.28,0,0,0-19.48-29.1L365.85,319.58a39.64,39.64,0,0,0-47.72,6.31l-24.88,24.88a18.23,18.23,0,0,1-24.36,1.36,719.09,719.09,0,0,1-57.4-51.62,719.33,719.33,0,0,1-51.62-57.4,18.23,18.23,0,0,1,1.36-24.36l24.88-24.88a39.63,39.63,0,0,0,6.31-47.72L119.69,19.84A39.57,39.57,0,0,0,57.42,11.6L19.93,49.09c-26.16,26.17-26.58,74-1.18,134.77,24.43,58.41,70,122.7,128.35,181s122.64,103.92,181,128.35C358,505.75,384.82,512,407.42,512c23.32,0,42.2-6.65,55.49-19.93l37.49-37.49a39.29,39.29,0,0,0,11.25-33.17ZM357.58,334l126.31,72.73a23,23,0,0,1,7,33.56L323,344.44l6.82-6.82A23,23,0,0,1,357.58,334ZM88.42,16.8a22.81,22.81,0,0,1,16.9,11.32L178,154.42a23,23,0,0,1-3.67,27.72l-6.26,6.26L71.79,21.09a22.7,22.7,0,0,1,13.56-4.5,23.42,23.42,0,0,1,3.07.2ZM451.18,480.34c-20.79,20.79-63.3,19.92-116.64-2.39C278.08,454.33,215.68,410,158.83,353.17S57.66,233.92,34.05,177.46C11.75,124.12,10.88,81.6,31.66,60.82L59.49,33,156,200.55,149.5,207a34.8,34.8,0,0,0-2.56,46.49,735.9,735.9,0,0,0,52.82,58.73,736.3,736.3,0,0,0,58.73,52.82A34.8,34.8,0,0,0,305,362.5l5.9-5.9L479,452.54l-27.8,27.8Z"/></g></g></svg>