<svg xmlns="http://www.w3.org/2000/svg" viewBox="0 0 230.6 68.1"><defs><style>.cls-1,.cls-2{fill:#39a935;}.cls-1{fill-rule:evenodd;}</style></defs><title>s2mblacklogofinal</title><g id="Layer_2" data-name="Layer 2"><g id="Layer_1-2" data-name="Layer 1"><path class="cls-1" d="M69.1,9.2h9.2c10.9,1.3,18.7,5.6,23.7,12.7,10.9-6.1,25.6-10.7,42.2-11.4a168.2,168.2,0,0,1,48,5v.6c-3.3,1.7-7.1-.3-10.6-.9-10.7-2.1-23.6-3.6-36.4-3-16.8.9-31.2,4.7-42,11,7.2,11.2,3.3,36.6-11.2,37.9H89.3c-4.9-.9-8.9-3.5-9.5-8.4-.9-6.8,2.5-13.7,6.2-18.1a49.5,49.5,0,0,1,13.3-11C92.2,11.4,73.3,8.5,56,13.1,42.9,16.7,32,23.1,21.5,29.6c-1.5.9-3,2.6-5,1.9v-.7C31.7,21.3,46.9,11.7,69.1,9.2ZM92.4,30.9a32,32,0,0,0-5.8,6.7c-2,3.3-4.9,10.2-3.5,15.5,1,3.7,6,7.2,10.6,6,9.4-2.5,12.9-26.4,6.2-34A69.9,69.9,0,0,0,92.4,30.9Z"/><polygon class="cls-2" points="192.8 18.6 191.9 33.6 226.7 22.6 192.8 18.6"/><polygon class="cls-2" points="193.6 14.4 198 0 226.7 22.6 193.6 14.4"/><path d="M10.7,35.8c-1.3,0-3,.6-3.4,2.1s1.8,2.5,3.1,3c4.8,1.8,5.2,4.3,4.6,6.7A9.2,9.2,0,0,1,5.8,54C2.3,54-.9,52.1.2,48.1a5.5,5.5,0,0,1,2.4-3.4c.4,0-1.4,5.1,4,5.1,1.9,0,3.8-.8,4.2-2.4s-1.6-2.6-2.9-3c-5-1.7-5-4.2-4.4-6.3a8.1,8.1,0,0,1,8.1-5.7c3.6,0,5.7,1.9,5.5,2.7s-2.1,3-2.8,3S13.4,35.8,10.7,35.8Z"/><path d="M26.3,34.4c-.2.7-1.3,2.2-1.4,2.5s-.1.8.3.8h1c1,0,.8.7.6,1.5s-.3,1.3-.9,1.3l-1.1-.2c-1.4,0-1.8,1.6-2.4,3.8-1.8,6.7-.7,7.8-.8,8.2s-3.4,1.8-4,1.8.3-5.6.7-7c.8-3.1,1.3-4.3,1.4-4.8s.8-2.1-.3-2.1-.8.3-1.1.3-.2-.3-.1-.8,1.1-2.1,2.1-2.1h.5c.8,0,1.2-1.2,1.5-2.1s3.4-1.7,3.9-1.7S26.5,33.9,26.3,34.4Z"/><path d="M26,45.6c1.1-4,4.2-8.4,8.6-8.4s5.2,4.3,4.1,8.4C37,51.5,32.9,54,30,54S24.4,51.5,26,45.6Zm9.7-.6c.5-2,.6-4.8-1.9-4.8S29.8,43,29.2,45s-.7,4.9,1.9,4.9S35.1,47,35.6,45Z"/><path d="M45.9,53.7c-.3,0-.9.1-.8-.4a38,38,0,0,0,3.6-8.7c.5-1.8.9-4-.8-4s-3.1.6-4.4,5.6a59.8,59.8,0,0,0-1.2,7.2c-.1.4-.5.3-.8.3H39.4c-.9,0-1.4.4.4-6.2,3-11.4,3.7-10.7,5.7-10.7s1.8-.1,1.7.5-.4.6-.5.9,0,.5.3.5,1.9-1,3.5-1,3.6.1,1.8,6.7c-2.6,9.9-3.3,9.4-4.1,9.4Z"/><path d="M53.3,46.3c1.6-6.1,5.8-9.1,9.2-9.1s4.7,1.6,3.9,4.5c-1.4,5.4-9.2,4.3-9.9,6.9s1.4,2,2.6,2c4.1,0,5-3.1,5.3-3.1s.1,1.3,0,1.5a6.9,6.9,0,0,1-6.8,5C53.1,54,52.2,50.3,53.3,46.3Zm4.1-2.5c-.1.3,0,.6.3.6s5.1-1,5.5-2.3a1.5,1.5,0,0,0-1.6-1.9C59.5,40.2,57.8,42.3,57.4,43.8Z"/><path d="M66.1,49.5a6.3,6.3,0,0,1,1.5-2.7c.1,0-.3,3.8,3.3,3.8a2.7,2.7,0,0,0,2.7-1.8c.7-2.6-6.3-1.9-4.9-6.9a6.6,6.6,0,0,1,6.4-4.7c3.1,0,4.4,1.9,4.2,2.4s-2.1,2.5-2.7,2.5-.3-1.9-2.6-1.9c-.8,0-1.9.4-2.1,1.1-.7,2.6,6.7,2.5,5.3,7.6A7.3,7.3,0,0,1,70.2,54C67.5,54,65.3,52.5,66.1,49.5Z"/><path d="M89.9,49.9c.3,0,7.2-1.3,7.9-1.3s-1.4,4.9-2.9,4.9-9.2.9-9.9.9-.8-.7-.6-1.4c2.3-8.7,11.1-9.8,12.2-13.7.4-1.4.1-2.7-1.5-2.7s-4.7,3.9-5.2,3.9-1-2.8-1-3,3.4-4.3,7-4.3,5.4,1.9,4.5,5.4c-1.7,6.2-10.1,8.1-10.9,10.8C89.5,49.8,89.7,49.9,89.9,49.9Z"/><path d="M106.8,53.7c-.6,0-1.5.5,1-8.9,3.3-12.4,4.5-12,4.9-12h2.3c1,0,1.3,0,2.1,1.7,1.5,3.2,1.1,5.1,1.7,5.1s1-1.8,4.6-5.1c1.9-1.7,2.2-1.7,3.2-1.7h2c.4,0,1.9-.5-1.5,12-2.5,9.4-3.1,8.9-3.8,8.9h-3.2c-.3,0-.9.1-.8-.4a58.7,58.7,0,0,0,4.5-11.4c.1-.5,1-3.6.2-3.6s-2.3,2.5-2.8,3.1c-3.5,5.2-3.3,7.5-5,7.5s-.7-2.4-1.5-7.5c-.1-.6-.3-3.1-1-3.1s-1.6,3.1-1.8,3.6a43.5,43.5,0,0,0-1.5,11.4c-.1.5-.7.4-1,.4Z"/><path d="M128.4,53.7c-1.2,0-1.5.5.9-8.3s2.5-7.8,3.3-7.8H134c1.1,0,1.1.1,1,.4s-.8,1.9-1.5,4.6A53.3,53.3,0,0,0,131.7,53c-.2.8-.9.7-1.5.7Zm4.2-19.7a2.5,2.5,0,0,1,2.4-1.7c1,0,1.8.7,1.5,1.7a2.4,2.4,0,0,1-2.4,1.7C133.1,35.6,132.4,35,132.7,33.9Z"/><path d="M134.8,53.7c-.9,0,1.5-8.4,1.6-9s3.2-12.4,4.4-12.4h2.4c.3,0,1-.1.9.5a50.5,50.5,0,0,0-3.7,10,51.9,51.9,0,0,0-1.9,10.6c-.1.4-.7.3-1,.3Z"/><path d="M141.6,46.3c1.6-6.1,5.8-9.1,9.2-9.1s4.7,1.6,3.9,4.5c-1.5,5.4-9.2,4.3-9.9,6.9s1.4,2,2.6,2c4.1,0,5-3.1,5.3-3.1s.1,1.3.1,1.5a6.9,6.9,0,0,1-6.8,5C141.4,54,140.5,50.3,141.6,46.3Zm4.1-2.5c-.1.3,0,.6.3.6s5.2-1,5.5-2.3a1.5,1.5,0,0,0-1.6-1.9C147.8,40.2,146,42.3,145.7,43.8Z"/><path d="M154.4,49.5a6.4,6.4,0,0,1,1.5-2.7c.1,0-.3,3.8,3.3,3.8a2.7,2.7,0,0,0,2.7-1.8c.7-2.6-6.3-1.9-4.9-6.9a6.6,6.6,0,0,1,6.4-4.7c3.1,0,4.4,1.9,4.2,2.4s-2.1,2.5-2.7,2.5-.3-1.9-2.6-1.9c-.8,0-1.9.4-2.1,1.1-.7,2.6,6.7,2.5,5.3,7.6a7.3,7.3,0,0,1-7.1,5.1C155.8,54,153.6,52.5,154.4,49.5Z"/><path d="M177.5,34.4a27.6,27.6,0,0,1-1.4,2.5c-.1.5-.1.8.3.8h1c1,0,.8.7.6,1.5s-.3,1.3-.9,1.3l-1.1-.2c-1.4,0-1.8,1.6-2.4,3.8-1.8,6.7-.7,7.8-.8,8.2s-3.4,1.8-4,1.8.3-5.6.7-7c.8-3.1,1.3-4.3,1.4-4.8s.8-2.1-.3-2.1-.8.3-1.1.3-.2-.3-.1-.8,1.1-2.1,2.1-2.1h.5c.8,0,1.2-1.2,1.5-2.1s3.4-1.7,3.9-1.7S177.6,33.9,177.5,34.4Z"/><path d="M177.1,45.6c1.1-4,4.2-8.4,8.6-8.4s5.1,4.3,4.1,8.4c-1.6,5.9-5.7,8.4-8.6,8.4S175.5,51.5,177.1,45.6Zm9.7-.6c.5-2,.6-4.8-1.9-4.8s-3.9,2.8-4.5,4.8-.7,4.9,1.9,4.9S186.2,47,186.8,45Z"/><path d="M197,53.7c-.3,0-.9.1-.8-.4a37.7,37.7,0,0,0,3.6-8.7c.5-1.8.9-4-.8-4s-3.1.6-4.4,5.6a61.7,61.7,0,0,0-1.2,7.2c-.1.4-.5.3-.8.3h-2.1c-.9,0-1.4.4.4-6.2,3-11.4,3.7-10.7,5.7-10.7s1.8-.1,1.7.5-.4.6-.5.9,0,.5.2.5,1.9-1,3.5-1,3.6.1,1.8,6.7c-2.6,9.9-3.3,9.4-4.1,9.4Z"/><path d="M204.5,46.3c1.6-6.1,5.8-9.1,9.2-9.1s4.7,1.6,3.9,4.5c-1.4,5.4-9.2,4.3-9.9,6.9s1.4,2,2.6,2c4.1,0,5-3.1,5.3-3.1s.1,1.3,0,1.5a7,7,0,0,1-6.8,5C204.3,54,203.4,50.3,204.5,46.3Zm4.1-2.5c-.1.3,0,.6.3.6s5.1-1,5.5-2.3a1.5,1.5,0,0,0-1.6-1.9C210.7,40.2,208.9,42.3,208.5,43.8Z"/><path d="M217.3,49.5a6.3,6.3,0,0,1,1.5-2.7c.1,0-.3,3.8,3.3,3.8a2.7,2.7,0,0,0,2.7-1.8c.7-2.6-6.3-1.9-4.9-6.9a6.6,6.6,0,0,1,6.4-4.7c3.1,0,4.4,1.9,4.2,2.4s-2.1,2.5-2.7,2.5-.3-1.9-2.6-1.9c-.8,0-1.9.4-2.1,1.1-.7,2.6,6.7,2.5,5.3,7.6a7.3,7.3,0,0,1-7.1,5.1C218.7,54,216.5,52.5,217.3,49.5Z"/><path d="M115.1,65.5h-1.1a.1.1,0,0,1,0-.1l.8-3.8v-.4c0-.1,0-.2,0-.4a1.3,1.3,0,0,0-.2-.7.6.6,0,0,0-.6-.3l-.7.2-.7.6-.6.9a4.4,4.4,0,0,0-.4,1.1l-.5,2.8H110a.1.1,0,0,1,0-.1l.8-3.8v-.4c0-.1,0-.3,0-.4a1.2,1.2,0,0,0-.2-.7.7.7,0,0,0-.6-.3l-.7.2-.7.6-.6.9a4.3,4.3,0,0,0-.4,1.1l-.6,2.8H106a.1.1,0,0,1,0-.1l1.2-6.2h1a.2.2,0,0,1,0,.1l-.2,1.2.3-.5.6-.5.7-.4h1.5l.5.3.3.5a2.2,2.2,0,0,1,.1.6l.4-.5.6-.5.7-.4h1.5l.5.4.3.5a2.4,2.4,0,0,1,.1.7,4.5,4.5,0,0,1,0,.5v.5Z"/><path d="M122.8,59.2v.2h0l-.5,1.3-.6,1.4-.8,1.5-1.1,1.7-1.8,2.4h-1.3v-.2l1.7-2.2-1-6v-.2h1.1l.8,5h0l.8-1.2.6-1.3.5-1.3.5-1.3h1.2Z"/><path d="M132.6,61.2a6,6,0,0,1-.1.9,5.9,5.9,0,0,1-.2,1l-.4,1-.6.8-.8.6-1.1.2h-.6l-.5-.2-.4-.3-.3-.3-.6,3h-1.1l1.7-8.6v-.2h.9a.2.2,0,0,1,0,.1l-.2,1.2.3-.5.6-.5.7-.4h.8l.9.2.6.5a2,2,0,0,1,.3.7A4,4,0,0,1,132.6,61.2Zm-1.2.1a2.7,2.7,0,0,0-.1-.5l-.2-.4-.3-.3h-.4l-.8.2-.7.6-.6.9a4.2,4.2,0,0,0-.4,1.1l-.2,1.1a2.5,2.5,0,0,0,.7.7l.8.2.7-.2.5-.5.4-.7.3-.8a4.8,4.8,0,0,0,.2-.8A5.6,5.6,0,0,0,131.4,61.3Z"/><path d="M134.7,65.5h-1.1a.2.2,0,0,1,0-.1l1.8-9.2h1.1Z"/><path d="M142,65.5l-.2.2h-.9a.1.1,0,0,1,0-.1l.2-1.2-.3.5-.6.5-.7.4h-.8l-.9-.2-.6-.5a2.1,2.1,0,0,1-.3-.7,4.3,4.3,0,0,1-.1-.8,5.4,5.4,0,0,1,.1-.9,6,6,0,0,1,.2-1l.4-1,.6-.9.8-.6,1.1-.2,1,.2.8.7v-.6l.2-.2h.8a.2.2,0,0,1,0,.1Zm-.2-4.6a2.3,2.3,0,0,0-.7-.7l-.8-.2-.7.2-.5.5-.4.7-.3.8-.2.8a5,5,0,0,0-.1.7,4.2,4.2,0,0,0,0,.5l.2.4.3.3h.5l.8-.2.7-.6.6-.9a4.3,4.3,0,0,0,.4-1.1Z"/><path d="M149.5,59.8v.7h-.3l-.3-.2-.4-.2h-.7l-.8.2-.6.5-.4.7-.3.7a4.6,4.6,0,0,0-.1.7,5.2,5.2,0,0,0,0,.6,1.6,1.6,0,0,0,.3,1.1,1.1,1.1,0,0,0,.9.4h.8l.5-.3.4-.3h.4v.8l-.3.2-.5.2-.6.2h-.6a2.2,2.2,0,0,1-1.7-.6,2.3,2.3,0,0,1-.6-1.7,6,6,0,0,1,.3-1.9l.4-1,.7-.8.9-.6,1.2-.2h1l.4.2.3.2v.2Z"/><path d="M155.7,60.5a1.7,1.7,0,0,1-.2.9,1.8,1.8,0,0,1-.7.6l-1.2.4h-2.5V63c0,.1,0,.3,0,.4a1.5,1.5,0,0,0,.3,1.1,1.4,1.4,0,0,0,1.1.4h2.2v.7l-.3.2h-2.9l-.8-.4a1.7,1.7,0,0,1-.5-.7,2.8,2.8,0,0,1-.2-1,5.8,5.8,0,0,1,.1-1,5.5,5.5,0,0,1,.3-1l.5-1,.7-.8.9-.6,1.2-.2h1l.7.4.4.5A1.4,1.4,0,0,1,155.7,60.5Zm-1.2.1a.7.7,0,0,0-.3-.6l-.8-.2-.8.2-.6.4-.5.6-.3.7h1.9l.8-.2.4-.4A.8.8,0,0,0,154.6,60.6Z"/><path d="M160.9,65.5h-1.1a.1.1,0,0,1,0-.1l1.2-6.2h1.1a.1.1,0,0,1,0,.1Zm1.8-8.3v.3l-.2.2h-1.1v-.2a1.4,1.4,0,0,1,0-.3v-.3l.2-.2h1.1v.5Z"/><path d="M169,60.6a4.2,4.2,0,0,1,0,.5v.5l-.8,3.9H167l.8-3.8v-.4c0-.1,0-.2,0-.4a1.2,1.2,0,0,0-.2-.7.7.7,0,0,0-.6-.3l-.7.2-.7.6-.6.9a4.3,4.3,0,0,0-.4,1.1l-.5,2.8H163a.1.1,0,0,1,0-.1l1.2-6.2h1l-.2,1.2.3-.5.6-.5.7-.4h1.6l.5.4a1.3,1.3,0,0,1,.3.5A2.4,2.4,0,0,1,169,60.6Z"/><path d="M177.8,59.3h0v.2h-1.8l-.7,3.4v.6a.8.8,0,0,0,.1.5l.5.2h1v.6h-1.8l-.5-.3L174,65a2.1,2.1,0,0,1-.1-.6v-.8l.7-3.5h-1s0-.1,0-.2v-.6h1l.3-1.5h1.1l-.3,1.5h1.7Z"/><path d="M183.2,65.5h-1.1a.1.1,0,0,1,0-.1l.8-3.8v-.4a3.3,3.3,0,0,0,0-.4,1.4,1.4,0,0,0,0-.4v-.3l-.2-.2h-.4l-.7.2-.7.6-.6.9a4.2,4.2,0,0,0-.4,1.1l-.6,2.7h-1.1a.2.2,0,0,1,0-.1l1.8-9.2H181a.2.2,0,0,1,0,.1l-.5,2.8v1.4l.3-.5.5-.5.7-.4h1.5l.5.4.3.5a2.5,2.5,0,0,1,.1.7,3.2,3.2,0,0,1,0,.5v.5Z"/><path d="M191.2,60.5a1.6,1.6,0,0,1-.2.9,1.8,1.8,0,0,1-.7.6l-1.2.4h-2.5a2.5,2.5,0,0,0-.1.4c0,.1,0,.3,0,.4a1.5,1.5,0,0,0,.3,1.1,1.5,1.5,0,0,0,1.1.4h2.2v.7l-.3.2h-2.9l-.8-.4a1.8,1.8,0,0,1-.5-.7,3.2,3.2,0,0,1-.2-1,6.1,6.1,0,0,1,.1-1,6.5,6.5,0,0,1,.3-1l.5-1,.7-.8,1-.6,1.2-.2h1l.7.4.4.5A1.5,1.5,0,0,1,191.2,60.5Zm-1.2.1a.7.7,0,0,0-.3-.6l-.8-.2-.8.2-.6.4-.5.6-.3.7h1.9l.8-.2.4-.4A.8.8,0,0,0,190.1,60.6Z"/><path d="M204.9,59.2a.8.8,0,0,1,0,.2h0l-.6,1.5-.7,1.5-.8,1.5-.9,1.4h-1.4l-.5-4.5-2.1,4.5h-1.5l-.7-5.9h1.1l.5,5.1h0l2.3-5.1h1.1l.5,5.1h0l.6-1.1.6-1.3.6-1.4.5-1.4h1.2Z"/><path d="M211.5,61.3a6,6,0,0,1-.1,1,5.6,5.6,0,0,1-.3,1l-.5.9-.7.8-.9.5-1.2.2-1.1-.2-.8-.5a1.9,1.9,0,0,1-.5-.7,3.2,3.2,0,0,1-.1-1,5.9,5.9,0,0,1,.1-1,5,5,0,0,1,.3-1l.5-.9.7-.8.9-.5L209,59l1.1.2.8.5a1.9,1.9,0,0,1,.5.7A3.4,3.4,0,0,1,211.5,61.3Zm-1.2.1a2.1,2.1,0,0,0-.1-.6l-.2-.5-.4-.3h-1.4l-.6.4-.5.6-.3.7a4.7,4.7,0,0,0-.2.8,5.3,5.3,0,0,0-.1.8,2.3,2.3,0,0,0,.1.6l.2.5.4.3h1.4l.6-.4.5-.6.3-.7.2-.8A4.6,4.6,0,0,0,210.3,61.4Z"/><path d="M217.2,59.3h0V60h-.9l-.5.2-.6.6-.5.8a4.1,4.1,0,0,0-.4,1.1l-.5,2.8h-1.1a.1.1,0,0,1,0-.1l1.2-6.2h1l-.2,1.1.4-.5.5-.5.5-.3h1.4Z"/><path d="M218.4,65.5h-1.1a.2.2,0,0,1,0-.1l1.8-9.2h1.1a.2.2,0,0,1,0,.1Z"/><path d="M225.7,65.5v.2h-.9a.1.1,0,0,1,0-.1l.2-1.2-.3.5-.6.5-.7.4h-1.5l-.5-.3-.3-.4-.2-.5V64c0-.2,0-.3,0-.5a6.3,6.3,0,0,1,.1-.9,6.4,6.4,0,0,1,.2-1l.4-1,.6-.8.8-.6,1.1-.2h.6l.5.2.4.3.3.3.7-3.5h1.1a.2.2,0,0,1,0,.1Zm-.2-4.5-.7-.7-.8-.3-.7.2-.5.4-.4.6-.3.8-.2.8a5.3,5.3,0,0,0-.1.7,1.9,1.9,0,0,0,.2,1,.8.8,0,0,0,.7.4l.8-.2.7-.6.6-.9a4.5,4.5,0,0,0,.4-1.1Z"/></g></g></svg>