<?xml version="1.0" encoding="utf-8"?>
<!-- Generator: Adobe Illustrator 19.0.0, SVG Export Plug-In . SVG Version: 6.00 Build 0)  -->
<svg version="1.1" id="Layer_1" xmlns="http://www.w3.org/2000/svg" xmlns:xlink="http://www.w3.org/1999/xlink" x="0px" y="0px"
	 viewBox="0 0 411 65.6" style="enable-background:new 0 0 411 65.6;" xml:space="preserve">
<style type="text/css">
	.st0{fill:#1D1D1B;}
</style>
<g id="XMLID_2_">
	<path id="XMLID_18_" class="st0" d="M227.2,28.3c0.9,0,1.7-0.3,2.4-1c0.7-0.7,1-1.5,1-2.4c0-0.5-0.1-0.9-0.3-1.3
		c-0.2-0.4-0.4-0.8-0.7-1.1c-0.3-0.3-0.7-0.5-1.1-0.7c-0.4-0.2-0.8-0.3-1.3-0.3c-0.5,0-0.9,0.1-1.3,0.3c-0.4,0.2-0.8,0.4-1.1,0.7
		c-0.3,0.3-0.5,0.7-0.7,1.1c-0.2,0.4-0.3,0.8-0.3,1.3c0,0.9,0.3,1.7,1,2.4C225.4,27.9,226.2,28.3,227.2,28.3z M226.3,24
		c0.2-0.3,0.5-0.4,0.9-0.4c0.3,0,0.6,0.1,0.9,0.4c0.3,0.3,0.4,0.6,0.4,0.9c0,0.3-0.1,0.6-0.4,0.9c-0.3,0.2-0.6,0.4-0.9,0.4
		c-0.3,0-0.6-0.1-0.9-0.4c-0.2-0.2-0.4-0.5-0.4-0.9C225.9,24.6,226,24.3,226.3,24z"/>
	<path id="XMLID_3_" class="st0" d="M410.6,42.1c-0.3-0.3-0.6-0.4-1-0.4c-0.3,0-0.5,0.1-0.7,0.2c-0.2,0.1-0.4,0.3-0.5,0.6
		c-0.5,1.2-1.1,2.3-1.7,3.5c-0.6,1.2-1.4,2.2-2.2,3.1c-0.8,0.9-1.7,1.7-2.7,2.3c-1,0.6-2.1,0.9-3.3,0.9c-1.2,0-2.2-0.2-3-0.6
		c-0.8-0.4-1.5-1-2-1.7c1-0.5,1.9-1,2.7-1.7s1.6-1.3,2.2-2.1c0.6-0.8,1.1-1.6,1.4-2.5c0.3-0.9,0.5-1.8,0.5-2.8
		c0-0.8-0.1-1.5-0.4-2.1c-0.3-0.6-0.6-1.1-1.1-1.6c-0.4-0.4-0.9-0.8-1.5-1c-0.6-0.2-1.1-0.3-1.7-0.3c-1,0-1.8,0.2-2.6,0.7
		c-0.8,0.4-1.5,1.1-2.1,1.8c-0.6,0.8-1,1.7-1.3,2.8c-0.1,0.4-0.4,1.3-0.5,1.4c-0.4,0.8-0.9,1.8-1.6,2.8c-0.6,1.1-1.3,2.1-2.1,3.1
		c-0.8,1-1.7,1.8-2.6,2.5c-0.9,0.7-1.9,1-3,1c-0.3,0-0.7-0.1-1.1-0.2c-0.4-0.1-0.8-0.4-1.2-0.7c-0.4-0.3-0.7-0.8-0.9-1.4
		c-0.2-0.6-0.4-1.3-0.4-2.2c0-0.6,0-1.2,0.1-1.9c0.1-0.6,0.2-1.3,0.3-1.9c0.1-0.7,0.2-1.3,0.3-1.9c0.1-0.6,0.1-1.2,0.1-1.8
		c0-1.4-0.4-2.4-1.1-3c-0.7-0.6-1.8-0.9-3.2-0.9c-0.4,0-0.8,0-1.2,0c-0.4,0-0.8,0-1.2,0c0-0.5,0-1.1-0.1-1.7
		c-0.1-0.7-0.2-1.3-0.4-1.9c-0.2-0.6-0.5-1.1-0.8-1.5c-0.4-0.4-0.8-0.6-1.4-0.6c-0.5,0-1,0.3-1.5,0.8c-0.5,0.5-0.9,1.1-1.3,1.8
		c-0.4,0.7-0.7,1.4-0.9,2.1c-0.2,0.7-0.4,1.3-0.4,1.7c0,0.6,0.1,1,0.4,1.3c0.2,0.3,0.6,0.6,0.9,0.7c0.4,0.1,0.8,0.2,1.2,0.3
		c0.4,0,0.9,0,1.3,0c-0.2,1.1-0.4,1.9-0.6,2.4c-0.1,0.4-0.2,0.7-0.3,0.9c-0.1,0.1-0.2,0.2-0.3,0.4c-0.2,0.5-0.5,1-0.8,1.7
		c-0.3,0.6-0.7,1.3-1.1,2c-0.4,0.7-0.9,1.4-1.4,2.1c-0.5,0.7-1,1.3-1.6,1.8c-0.6,0.5-1.1,1-1.7,1.3c-0.6,0.3-1.2,0.5-1.8,0.5
		c-0.9,0-1.6-0.3-2.1-0.9c-0.5-0.6-0.9-1.3-1.2-2.2c-0.3-0.8-0.4-1.7-0.5-2.5c-0.1-0.9-0.1-1.5-0.1-2c0-0.3-0.2-0.7-0.4-0.9
		c-0.3-0.3-0.6-0.4-0.9-0.4c-0.4,0-0.7,0.1-1,0.4c-0.3,0.2-0.4,0.5-0.5,0.9c-0.2,1.3-0.5,2.4-0.9,3.3c-0.4,0.9-0.9,1.7-1.4,2.3
		c-0.5,0.6-1.1,1.1-1.7,1.4c-0.6,0.3-1.1,0.4-1.5,0.4c-0.6,0-1.1-0.1-1.6-0.4c-0.4-0.2-0.8-0.6-1-1c-0.2-0.4-0.4-0.8-0.5-1.3
		c-0.1-0.5-0.1-1-0.1-1.4c0-1.5,0.2-2.8,0.7-3.9c0.5-1.1,1.1-2,1.8-2.7c0.7-0.7,1.5-1.3,2.4-1.6c0.9-0.3,1.7-0.5,2.4-0.5
		c0.5,0,1,0.1,1.4,0.2c0.4,0.1,0.8,0.2,1.1,0.4c0.3,0.1,0.5,0.3,0.7,0.4c0.2,0.1,0.3,0.2,0.3,0.3c0.3,0.3,0.6,0.4,1,0.4
		c0.4,0,0.7-0.1,1-0.4c0.3-0.3,0.4-0.6,0.4-1c0-0.3-0.1-0.7-0.4-1c0,0-0.2-0.1-0.4-0.3s-0.6-0.4-1.1-0.7c-0.5-0.2-1-0.5-1.6-0.7
		c-0.6-0.2-1.3-0.3-2.1-0.3c-1.1,0-2.3,0.2-3.5,0.7c-1.2,0.5-2.3,1.2-3.3,2.2c-0.5,0.4-0.8,0.9-1.2,1.4c-0.7,1.1-4,6.3-5.1,7.7
		c-0.7,0.9-1.5,1.7-2.5,2.4c-0.9,0.7-2,1.3-3.1,1.8c-1.1,0.5-2.4,0.7-3.7,0.7c-1,0-1.9-0.2-2.7-0.6c-0.8-0.4-1.4-1-1.9-1.7
		c-0.5-0.7-0.9-1.5-1.1-2.4c-0.2-0.9-0.4-1.9-0.4-2.9c0-1.1,0.1-2.1,0.4-3s0.7-1.8,1.1-2.5c0.5-0.7,1-1.3,1.6-1.7
		c0.6-0.4,1.3-0.6,2-0.6c0.7,0,1.4,0.2,1.8,0.6c0.5,0.4,0.7,0.9,0.7,1.4c0,0.4,0,0.7-0.1,0.9c-0.1,0.2-0.2,0.4-0.3,0.6
		c-0.1,0.2-0.2,0.3-0.3,0.5c-0.1,0.1-0.1,0.3-0.1,0.5c0,0.4,0.1,0.7,0.4,1c0.3,0.3,0.6,0.4,1,0.4c0.3,0,0.5-0.1,0.8-0.3
		c0.3-0.2,0.5-0.5,0.7-0.9c0.2-0.4,0.4-0.8,0.5-1.2c0.1-0.5,0.2-1,0.2-1.5c0-0.6-0.1-1.1-0.4-1.7c-0.3-0.6-0.6-1.1-1.1-1.6
		c-0.5-0.5-1-0.8-1.7-1.1c-0.7-0.3-1.4-0.4-2.2-0.4c-1.1,0-2.1,0.3-3.1,0.8c-1,0.6-1.8,1.3-2.5,2.3c-0.7,1-1.3,2.1-1.7,3.4
		c-0.4,1.2-0.5,2.6-0.8,3.9c-0.3,1.2-0.7,2.3-1.2,3.4c-1,2.2-2.3,4.3-3.7,6.2c-0.8,1.1-1.8,2.1-2.7,3.1c-1,1-2,1.9-3.2,2.5
		c-3.4,1.8-5.5,2.8-9.9,2.8c-1.5,0-3.2-0.1-5-0.5c-6.7-1.2-10.3-4.5-13-9c-1.6-2.7-2.5-5.6-3.2-8.6c-0.2-0.8-0.6-4.1-0.6-4.9
		c0-0.6-0.1-1.5-0.5-2c-0.3-0.4-0.6-0.7-1-0.9c0,0-0.1-0.1-0.1-0.1c0,0,0,0,0,0c-0.1,0-0.1,0-0.2-0.1c-0.5-0.2-1.8-0.3-1.8-0.3
		c-0.6,0-1.1,0.2-1.7,0.5c-0.7,0.4-1.5,1-2.2,1.9c-0.7,0.9-1.4,1.8-2.1,2.8c-0.7,1-1.3,2-1.9,3.1c-0.6,1-1.1,2-1.7,3
		c-0.5,1-1,1.9-1.4,2.7l0-1.7v-6.5c1.3-2.4,2.6-4.9,3.7-7.4c1.2-2.5,2.2-5.1,3.1-7.8c0.9-2.7,1.6-5.4,2.1-8.2
		c0.1-0.6,0.2-1.2,0.3-1.7c0.1-0.2,0.1-0.4,0.1-0.6c0-0.1,0-0.1,0-0.2c0.3-2,0.4-4,0.4-6.1c0-1.4-0.1-2.8-0.3-4.1
		c-0.2-1.3-0.5-2.4-1-3.4c-0.4-1-1-1.7-1.7-2.3C267,0.3,266.2,0,265.1,0c-1.2,0-2.2,0.6-3,1.7c-0.8,1.1-1.5,2.7-2,4.8
		c-0.5,2.1-0.9,4.6-1.2,7.5c0,0.5-0.1,1-0.1,1.5h-8.8c-0.1-0.9-0.2-1.7-0.4-2.4c-0.2-0.7-0.4-1.4-0.8-1.9c-0.3-0.5-0.7-1-1.2-1.3
		c-0.5-0.3-1-0.5-1.6-0.5c-0.6,0-1.2,0.2-1.8,0.5c-0.5,0.3-1,0.7-1.4,1.3c-0.4,0.5-0.8,1.2-1.1,1.9c-0.3,0.7-0.6,1.6-0.9,2.4H227
		c-0.4,0-0.7,0.1-1,0.4c-0.3,0.2-0.4,0.5-0.4,0.9c0,0.4,0.1,0.7,0.4,0.9c0.3,0.2,0.6,0.4,1,0.4h13.3c-0.2,1.2-0.4,2.5-0.6,3.8
		c-0.1,1.3-0.3,2.6-0.3,3.8c-0.1,1.2-0.1,2.4-0.1,3.5c0,1.1,0,2.1,0,2.9c0,3.3,0.2,6.3,0.7,9c0.1,0.6,0.2,1.2,0.4,1.7
		c-0.7,1.4-1.4,2.6-2.1,3.8c-0.8,1.2-1.6,2.3-2.3,3.2c-0.8,0.9-1.5,1.6-2.3,2.1c-0.7,0.5-1.5,0.7-2.1,0.7c-0.4,0-0.9-0.1-1.3-0.2
		c-0.5-0.1-0.9-0.4-1.3-0.9c-0.4-0.4-0.7-1.1-1-1.9c-0.3-0.8-0.4-1.9-0.4-3.2c0-1,0-2,0.1-3.2c0.1-1.1,0.1-2.2,0.2-3.3
		c0.1-1,0.2-1.9,0.2-2.6c0.1-0.7,0.1-1.2,0.1-1.3c0-0.4-0.1-0.7-0.4-1c-0.2-0.3-0.6-0.4-0.9-0.4c-0.4,0-0.8,0.1-1,0.4
		c-0.3,0.3-0.4,0.6-0.5,0.9c-0.3,2.1-0.4,6-0.7,6.6c0,0-0.1,0.2-0.2,0.4c-0.1,0.2-0.3,0.5-0.5,0.7c-0.2,0.2-0.5,0.5-0.8,0.6
		c-0.3,0.2-0.7,0.3-1.2,0.3c-0.8,0-1.6-0.2-2.2-0.6c-0.7-0.4-1.2-0.9-1.7-1.5c-0.5-0.6-0.9-1.3-1.3-2c-0.4-0.7-0.6-1.4-0.9-2.1
		c-0.2-0.7-0.4-1.2-0.5-1.7c-0.1-0.5-0.2-0.8-0.2-0.9c-0.1-0.3-0.2-0.6-0.5-0.8c-0.2-0.2-0.5-0.3-0.9-0.3c-0.4,0-0.7,0.1-1,0.4
		c-0.3,0.3-0.4,0.6-0.4,1c0,0.3,0.1,1,0.3,2.1c0.2,1,0.3,2.3,0.3,3.9c0,1.3-0.1,2.5-0.2,3.7c-0.2,1.2-0.4,2.2-0.8,3.1
		c-0.4,0.9-0.9,1.6-1.5,2.1c-0.6,0.5-1.4,0.8-2.3,0.8c-0.7,0-1.3-0.1-1.8-0.4c-0.5-0.3-1-0.7-1.4-1.3c-0.4-0.6-0.6-1.4-0.8-2.3
		c-0.2-0.9-0.2-2.1-0.1-3.4l0.4-6.1c0-0.4-0.1-0.7-0.4-1.1c-0.2-0.3-0.6-0.5-1-0.5c-0.4,0-0.7,0.1-1,0.4c-0.3,0.2-0.4,0.6-0.5,0.9
		l-0.5,6.4c-0.1,1.2-0.3,2.3-0.7,3.2c-0.4,0.9-0.9,1.7-1.4,2.3c-0.5,0.6-1.1,1-1.7,1.3c-0.6,0.3-1.2,0.4-1.7,0.4
		c-0.4,0-0.8-0.1-1.1-0.2c-1.8-1.1-2.6-2.7-3.1-4.4c2.3-3.3,4.2-7.4,2.8-11.1c-0.6-1.6-1.7-2-2.3-2.1c-1-0.2-2.1,0.3-3,1.2
		c-1.7,1.8-1.4,4.8-1.3,6.7c0.1,1.3,0.5,3.1,1.1,4.9c-1.2,1.6-2.7,3.1-4.1,4.5c-3.7,3.4-6.6,6.3-13,8.8c-12.2,4.8-18.8,1.8-25.1-9.5
		c0-0.1-2.1-4-2.4-7.2c0.7-1.6,1.4-3.5,2.2-5.7c0.8-2.2,1.6-4.6,2.3-7.3c0.7-2.6,1.3-5.4,1.8-8.2c0.5-2.9,0.7-5.7,0.7-8.6
		c0-1.3-0.1-2.6-0.3-3.7c-0.2-1.1-0.4-2.1-0.8-2.9c-0.4-0.8-0.8-1.4-1.4-1.8c-0.6-0.4-1.3-0.7-2.1-0.7c-0.9,0-1.7,0.3-2.4,0.9
		c-0.7,0.6-1.3,1.5-1.9,2.6c-0.5,1.1-1,2.3-1.4,3.8c-0.4,1.4-0.7,2.9-0.9,4.5c-0.2,1.6-0.4,3.2-0.5,4.9c-0.1,1.7-0.1,3.3-0.1,4.8
		c0,3.5,0.2,6.7,0.5,9.5c0.3,2.8,0.7,5.3,1.1,7.5c-0.7,1.8-1.4,3.3-2,4.5c-0.6,1.1-1.2,2-1.7,2.6c-0.5,0.6-1,1-1.4,1.2
		c-0.4,0.2-0.9,0.3-1.3,0.3c-1,0-1.7-0.3-2.2-1c-0.5-0.7-0.8-1.7-0.8-2.9c0-1.5,0.2-2.8,0.7-3.9c0.5-1.1,1-2,1.7-2.7
		c0.7-0.7,1.5-1.2,2.3-1.6c0.8-0.4,1.6-0.6,2.4-0.7c0.4,0,0.7-0.2,0.9-0.5c0.2-0.3,0.3-0.6,0.3-0.9c0-0.4-0.1-0.7-0.4-1
		c-0.3-0.3-0.6-0.4-1-0.4c-1.1,0-2.3,0.3-3.4,0.9c-1.1,0.6-2.2,1.4-3.1,2.4c-0.3,0.4-0.6,0.8-0.9,1.2c-0.3,0.4-1.9,2.8-2.1,3.2
		c-0.4,0.8-0.8,1.6-1.2,2.4c-0.6,1.2-1.4,2.2-2.2,3.1c-0.8,0.9-1.7,1.7-2.7,2.3c-1,0.6-2.1,0.9-3.3,0.9c-1.2,0-2.2-0.2-3-0.6
		c-0.8-0.4-1.5-1-2-1.7c1-0.5,1.9-1,2.7-1.7s1.6-1.3,2.2-2.1c0.6-0.8,1.1-1.6,1.4-2.5c0.3-0.9,0.5-1.8,0.5-2.8
		c0-0.8-0.1-1.5-0.4-2.1c-0.3-0.6-0.6-1.1-1.1-1.6c-0.4-0.4-0.9-0.8-1.5-1c-0.6-0.2-1.1-0.3-1.7-0.3c-1,0-1.8,0.2-2.6,0.7
		c-0.8,0.4-1.5,1.1-2.1,1.8c-0.6,0.8-1.8,4.1-1.9,4.3c-0.3,0.8-0.8,1.7-1.3,2.8c-0.5,1.1-1.2,2.1-1.9,3c-0.7,1-1.5,1.8-2.3,2.4
		c-0.8,0.7-1.7,1-2.6,1c-2.3,0-4-2.8-5.3-8.5c0.7-1.6,1.4-3.5,2.2-5.7c0.8-2.2,1.6-4.6,2.3-7.3c0.7-2.6,1.3-5.4,1.8-8.2
		c0.5-2.9,0.7-5.7,0.7-8.6c0-1.3-0.1-2.6-0.3-3.7c-0.2-1.1-0.4-2.1-0.8-2.9c-0.4-0.8-0.8-1.4-1.4-1.8c-0.6-0.4-1.3-0.7-2.1-0.7
		c-0.9,0-1.7,0.3-2.4,0.9c-0.7,0.6-1.3,1.5-1.9,2.6c-0.5,1.1-1,2.3-1.4,3.8c-0.4,1.4-0.7,2.9-0.9,4.5c-0.2,1.6-0.4,3.2-0.5,4.9
		c-0.1,1.7-0.1,3.3-0.1,4.8c0,3.5,0.2,6.7,0.5,9.5c0.3,2.8,0.7,5.3,1.1,7.5c-0.7,1.8-1.4,3.3-2,4.5c-0.6,1.1-1.2,2-1.7,2.6
		c-0.5,0.6-1,1-1.4,1.2c-0.4,0.2-0.9,0.3-1.3,0.3c-1,0-1.7-0.3-2.2-1c-0.5-0.7-0.8-1.7-0.8-2.9c0-1.5,0.2-2.8,0.7-3.9
		c0.5-1.1,1-2,1.7-2.7c0.7-0.7,1.5-1.2,2.3-1.6c0.8-0.4,1.6-0.6,2.4-0.7c0.4,0,0.7-0.2,0.9-0.5c0.2-0.3,0.3-0.6,0.3-0.9
		c0-0.4-0.1-0.7-0.4-1c-0.3-0.3-0.6-0.4-1-0.4c-1.1,0-2.3,0.3-3.4,0.9c-1.1,0.6-2.2,1.4-3.1,2.4c-0.7,0.7-3.4,5-4.1,6.1
		s-1.3,2.1-2.1,3.1c-0.8,1-1.7,1.8-2.6,2.5c-0.9,0.7-1.9,1-3,1c-0.3,0-0.7-0.1-1.1-0.2c-0.4-0.1-0.8-0.4-1.2-0.7
		c-0.4-0.3-0.7-0.8-0.9-1.4c-0.2-0.6-0.4-1.3-0.4-2.2c0-0.6,0-1.2,0.1-1.9c0.1-0.6,0.2-1.3,0.3-1.9c0.1-0.7,0.2-1.3,0.3-1.9
		c0.1-0.6,0.1-1.2,0.1-1.8c0-1.4-0.4-2.4-1.1-3c-0.7-0.6-1.8-0.9-3.2-0.9c-0.4,0-0.8,0-1.2,0c-0.4,0-0.8,0-1.2,0
		c0-0.5,0-1.1-0.1-1.7c-0.1-0.7-0.2-1.3-0.4-1.9c-0.2-0.6-0.5-1.1-0.8-1.5c-0.4-0.4-0.8-0.6-1.4-0.6c-0.5,0-1,0.3-1.5,0.8
		c-0.5,0.5-0.9,1.1-1.3,1.8c-0.4,0.7-0.7,1.4-0.9,2.1c-0.2,0.7-0.4,1.3-0.4,1.7c0,0.6,0.1,1,0.4,1.3c0.2,0.3,0.6,0.6,0.9,0.7
		c0.4,0.1,0.8,0.2,1.2,0.3c0.4,0,0.9,0,1.3,0c-0.2,1.1-0.4,1.9-0.6,2.4c-0.1,0.4-0.2,0.7-0.3,1c0,0-0.1,0.1-0.1,0.1
		c-0.4,0.8-0.8,1.5-1.2,2.1c-0.4,0.6-0.9,1.1-1.5,1.5c-0.5,0.4-1.1,0.7-1.8,0.9c-0.7,0.2-1.4,0.3-2.3,0.3c-0.2,0-0.3,0-0.5,0
		c-0.1,0-0.3,0-0.4,0c0.2-0.9,0.3-1.7,0.3-2.5c0-1.5-0.1-2.8-0.4-3.9c-0.3-1.1-0.6-2-1.1-2.7c-0.5-0.7-1-1.2-1.6-1.5
		c-0.6-0.3-1.2-0.5-1.9-0.5c-1.1,0-2,0.4-2.7,1.3c-0.7,0.9-1,2-1,3.4c0,1.8,0.5,3.3,1.4,4.7c0.9,1.4,2.1,2.5,3.6,3.3
		c-0.5,1-1.2,1.8-2.1,2.5c-0.9,0.7-2.1,1-3.5,1c-0.8,0-1.5-0.1-2.1-0.4c-0.6-0.3-1.2-0.7-1.7-1.2c-0.5-0.5-0.8-1.1-1.1-1.8
		c-0.2-0.7-0.4-1.5-0.4-2.3c0-0.9,0.1-1.7,0.4-2.5c0.2-0.7,0.6-1.4,0.9-1.9c0.4-0.5,0.8-1,1.2-1.4c0.4-0.4,0.9-0.6,1.3-0.8
		c0.4-0.2,0.7-0.4,1-0.6c0.3-0.2,0.4-0.5,0.4-0.9c0-0.4-0.1-0.7-0.3-0.9c-0.2-0.2-0.5-0.3-0.9-0.3c-0.4,0-0.9,0.2-1.7,0.6
		c-0.7,0.4-1.5,1-2.2,1.7c-0.6,0.6-1.1,1.4-1.6,2.3c-0.2,0.2-0.4,0.4-0.5,0.6c0,0-0.1,0.2-0.2,0.4c-0.1,0.2-0.3,0.5-0.5,0.7
		c-0.2,0.2-0.5,0.5-0.8,0.6c-0.3,0.2-0.7,0.3-1.2,0.3c-0.8,0-1.6-0.2-2.2-0.6c-0.7-0.4-1.2-0.9-1.7-1.5c-0.5-0.6-0.9-1.3-1.3-2
		c-0.4-0.7-0.6-1.4-0.9-2.1c-0.2-0.7-0.4-1.2-0.5-1.7c-0.1-0.5-0.2-0.8-0.2-0.9c-0.1-0.3-0.2-0.6-0.5-0.8c-0.2-0.2-0.5-0.3-0.9-0.3
		c-0.4,0-0.7,0.1-1,0.4c-0.3,0.3-0.4,0.6-0.4,1c0,0.3,0.1,1,0.3,2.1c0.2,1,0.3,2.3,0.3,3.9c0,1.3-0.1,2.5-0.2,3.7
		c-0.2,1.2-0.4,2.2-0.8,3.1c-0.4,0.9-0.9,1.6-1.5,2.1c-0.6,0.5-1.4,0.8-2.3,0.8c-0.7,0-1.3-0.1-1.8-0.4c-0.5-0.3-1-0.7-1.4-1.3
		c-0.4-0.6-0.6-1.4-0.8-2.3c-0.2-0.9-0.2-2.1-0.1-3.4l0.4-6.1c0-0.4-0.1-0.7-0.4-1.1c-0.2-0.3-0.6-0.5-1-0.5c-0.4,0-0.7,0.1-1,0.4
		c-0.3,0.2-0.4,0.6-0.5,0.9l-0.5,6.4c-0.1,1.2-0.3,2.3-0.7,3.2c-0.4,0.9-0.9,1.7-1.4,2.3c-0.5,0.6-1.1,1-1.7,1.3s-1.2,0.4-1.7,0.4
		c-1.1,0-1.9-0.4-2.5-1.1c-0.6-0.8-0.9-1.9-0.9-3.3c0-1.4,0.1-2.6,0.4-3.7c0.2-1,0.5-1.9,0.8-2.6c0.3-0.7,0.6-1.3,0.9-1.7
		c0.3-0.4,0.5-0.7,0.6-0.9c0.2-0.3,0.3-0.6,0.3-0.9c0-0.4-0.1-0.7-0.4-1C5,36.1,4.7,36,4.3,36c-0.2,0-0.4,0-0.6,0.1
		c-0.2,0.1-0.3,0.2-0.5,0.3C2.6,37.3,2,38.1,1.6,39c-0.4,0.9-0.8,2-1.1,3.3C0.2,43.7,0,45.3,0,47.1c0,1.1,0.1,2.1,0.4,3
		c0.3,0.9,0.7,1.6,1.2,2.3c0.5,0.6,1.2,1.1,1.9,1.5c0.8,0.3,1.6,0.5,2.5,0.5c1.2,0,2.3-0.4,3.5-1.2c1.2-0.8,2.2-1.9,3.1-3.3
		c0.2,0.6,0.5,1.2,0.8,1.8c0.3,0.6,0.7,1.1,1.2,1.5c0.5,0.4,1,0.8,1.7,1c0.7,0.3,1.4,0.4,2.3,0.4c1.4,0,2.5-0.3,3.5-1
		c0.9-0.7,1.7-1.5,2.3-2.5c0.6-1,1-2.2,1.3-3.5c0.3-1.3,0.4-2.6,0.5-3.9c0.4,0.5,0.8,1,1.2,1.4c0.4,0.4,0.9,0.8,1.5,1.2
		c0.5,0.3,1.1,0.6,1.7,0.8c0.6,0.2,1.3,0.3,2,0.3c0.8,0,1.5-0.2,2.1-0.5c0,1.1,0.2,2.1,0.6,3.1c0.4,1,1,1.9,1.7,2.6
		c0.7,0.7,1.6,1.3,2.5,1.7c1,0.4,2,0.6,3.2,0.6c1,0,1.9-0.1,2.7-0.4c0.8-0.3,1.6-0.6,2.3-1.1c0.7-0.5,1.3-1,1.8-1.6
		c0.5-0.6,1-1.3,1.3-2.1c0.5,0.1,1,0.1,1.6,0.1c1.2,0,2.2-0.1,3.1-0.4c0.9-0.3,1.8-0.7,2.5-1.2c0.8-0.5,1.4-1.1,2-1.8
		c0.6-0.7,1-1.4,1.5-2.1c0.1-0.2,0.2-0.4,0.3-0.6c0,0,0,0,0,0c0,0,0,0,0,0c0,0,0.1-0.2,0.2-0.4c0.1-0.3,0.2-0.6,0.4-1.1
		c0.1-0.4,0.3-0.9,0.4-1.5c0.1-0.6,0.3-1.2,0.4-1.9c0.5,0,0.9,0,1.3,0c0.4,0,0.8,0,1.1,0c0.7,0,1.2,0.1,1.4,0.4
		c0.2,0.2,0.3,0.6,0.3,1.1c0,1.1-0.1,2.3-0.4,3.5c-0.2,1.2-0.4,2.4-0.4,3.7c0,1.2,0.2,2.2,0.5,3.1c0.3,0.9,0.8,1.7,1.4,2.3
		c0.6,0.6,1.3,1.1,2.1,1.4c0.8,0.3,1.6,0.5,2.5,0.5c1.4,0,2.7-0.4,3.9-1.1c1.2-0.8,2.3-1.7,3.2-2.8c0.5-0.6,1-1.2,1.5-1.9
		c0.1,0.7,0.2,1.3,0.4,1.9c0.3,0.8,0.7,1.5,1.3,2.1c0.5,0.5,1.1,0.9,1.8,1.2c0.7,0.2,1.4,0.4,2.1,0.4c1.4,0,2.7-0.6,3.9-1.7
		c1.2-1.1,2.4-3,3.6-5.5c0.9,2.6,1.9,4.5,3.1,5.7c1.2,1.1,2.6,1.7,4.3,1.7c0.9,0,1.7-0.2,2.5-0.6c0.8-0.4,1.6-1,2.3-1.6
		c0.7-0.7,1.4-1.4,2-2.3c0.6-0.8,1.1-1.6,1.5-2.3c0.1,0.2,0.1,0.4,0.1,0.6c0.4,1.3,0.9,2.4,1.7,3.4c0.8,1,1.7,1.8,2.9,2.4
		c1.2,0.6,2.6,0.9,4.2,0.9c2.5-0.1,4.8-1,6.8-2.9c0.9-0.8,1.7-1.8,2.5-3c0.1,0.6,0.2,1.1,0.4,1.6c0.3,0.8,0.7,1.5,1.3,2.1
		c0.5,0.5,1.1,0.9,1.8,1.2c0.7,0.2,1.4,0.4,2.1,0.4c1.4,0,2.7-0.6,3.9-1.7c1.2-1.1,2.4-3,3.6-5.5c0.6,1.9,1.3,3.3,2.1,4.4
		c4.8,8.6,9,12.9,16.9,12.9c3.4,0,7.1-0.8,11.2-2.4c6.7-2.6,9.8-5.7,13.8-9.3c0.8-0.7,2.2-2,3.5-3.7c0.2,0.5,0.5,0.9,0.7,1.3
		c2.5,4.7,6.6,3.7,6.6,3.7c0.7-0.2,1.4-0.5,2.1-1c1.2-0.8,2.2-1.9,3.1-3.3c0.2,0.6,0.5,1.2,0.8,1.8c0.3,0.6,0.7,1.1,1.2,1.5
		c0.5,0.4,1,0.8,1.7,1c0.7,0.3,1.4,0.4,2.3,0.4c1.4,0,2.5-0.3,3.5-1c0.9-0.7,1.7-1.5,2.3-2.5c0.6-1,1-2.2,1.3-3.5
		c0.3-1.3,0.4-2.6,0.5-3.9c0.4,0.5,0.8,1,1.2,1.4c0.4,0.4,0.9,0.8,1.5,1.2c0.5,0.3,1.1,0.6,1.7,0.8c0.6,0.2,1.3,0.3,2,0.3
		c0.8,0,1.6-0.2,2.2-0.5c0.2-0.1,0.4-0.2,0.6-0.3c0,1.2,0.1,2.4,0.4,3.5c0.3,1.1,0.7,2,1.3,2.8c0.6,0.8,1.3,1.4,2.1,1.9
		c0.8,0.5,1.8,0.7,2.9,0.7c0.9,0,1.7-0.2,2.6-0.6c0.8-0.4,1.6-1,2.4-1.6c0.8-0.7,1.5-1.4,2.2-2.3c0.7-0.9,1.3-1.7,1.9-2.6
		c0.4-0.6,0.7-1.2,1.1-1.7c0.2,0.6,0.4,1.1,0.7,1.6c0.9,2,2.1,3.6,3.5,4.7c1.4,1.1,2.9,1.7,4.6,1.7c1,0,1.9-0.2,2.7-0.7
		c0.9-0.5,1.7-1.1,2.4-1.8c0.8-0.7,1.4-1.6,2-2.5c0.3-0.5,0.6-1,0.9-1.4c0,0.3,0,0.7,0,1v2.3c0,0.9,0.2,1.6,0.6,2.2
		c0.4,0.6,1,0.9,1.8,0.9c0.4,0,0.9-0.2,1.4-0.5c0.5-0.4,1.1-1.1,1.6-2.1c0.3-0.5,0.6-1.2,1-2.1c0.4-0.8,0.9-1.7,1.4-2.6
		c0.5-0.9,1.1-1.8,1.6-2.8c0.6-0.9,1.1-1.8,1.7-2.5c0.6-0.7,1.1-1.3,1.6-1.8c0.5-0.5,1-0.7,1.3-0.7c0.3,0,0.5,0.1,0.7,0.4
		c0.1,0.1,0.2,0.3,0.2,0.5c0.2,0.9,0.8,5.6,1.2,7c0.4,1.7,1,3.3,1.7,4.9c0.4,0.9,0.8,1.8,1.3,2.6c3,5.1,7.3,8.9,14.7,10.2
		c1.9,0.3,3.6,0.5,5.2,0.5c0.1,0,0.2,0,0.2,0c4.8,0,7.2-1.1,11-3.1c2-1.1,3.6-2.7,5.1-4.4c1.7-1.9,3.3-3.8,4.4-6.1l0.2-0.4
		c0.3-0.6,0.6-1.2,0.9-1.9c0.4,1.2,0.9,2.2,1.7,3.1c0.8,0.9,1.7,1.6,2.8,2.1c1.1,0.5,2.3,0.8,3.7,0.8c1.6,0,3-0.3,4.4-0.8
		c1.3-0.5,2.6-1.2,3.6-2c1.1-0.8,2-1.7,2.9-2.6c0.5-0.5,0.9-1,1.3-1.6c0.1,0.5,0.2,1,0.3,1.5c0.3,0.8,0.7,1.5,1.2,2.1
		c0.5,0.6,1.1,1.1,1.9,1.4c0.7,0.3,1.6,0.5,2.5,0.5c1.2,0,2.3-0.4,3.5-1.2c1.2-0.8,2.2-1.9,3-3.3c0.4,1.4,1.2,2.5,2.1,3.4
		c1,0.9,2.2,1.4,3.6,1.4c1,0,2-0.2,2.9-0.7c0.9-0.5,1.8-1.1,2.6-1.8c0.8-0.7,1.5-1.6,2.1-2.4c0.6-0.9,1.2-1.7,1.7-2.6
		c0.5-0.8,0.9-1.5,1.2-2.2c0.3-0.6,0.5-1,0.6-1.2c0,0,0.1-0.2,0.2-0.4c0.1-0.3,0.2-0.6,0.4-1.1c0.1-0.4,0.3-0.9,0.4-1.5
		c0.1-0.6,0.3-1.2,0.4-1.9c0.5,0,0.9,0,1.3,0c0.4,0,0.8,0,1.1,0c0.7,0,1.2,0.1,1.4,0.4c0.2,0.2,0.3,0.6,0.3,1.1
		c0,1.1-0.1,2.3-0.4,3.5c-0.2,1.2-0.4,2.4-0.4,3.7c0,1.2,0.2,2.2,0.5,3.1c0.3,0.9,0.8,1.7,1.4,2.3c0.6,0.6,1.3,1.1,2.1,1.4
		c0.8,0.3,1.6,0.5,2.5,0.5c1.4,0,2.7-0.4,3.9-1.1c1.2-0.8,2.3-1.7,3.2-2.8c0.9-1.1,1.7-2.2,2.5-3.4c0.1,0.3,0.1,0.6,0.2,0.9
		c0.4,1.3,0.9,2.4,1.7,3.4c0.8,1,1.7,1.8,2.9,2.4c1.2,0.6,2.6,0.9,4.2,0.9c2.5-0.1,4.8-1,6.8-2.9c2-1.9,3.9-4.7,5.6-8.5
		c0.1-0.1,0.1-0.2,0.1-0.3c0-0.1,0-0.2,0-0.3C411,42.7,410.8,42.4,410.6,42.1z M49.2,46.2c-0.5-0.3-1-0.7-1.3-1.2
		c-0.4-0.5-0.7-0.9-1-1.4c-0.3-0.5-0.4-1-0.6-1.5c-0.1-0.5-0.2-1-0.2-1.5c0-0.7,0.1-1.2,0.4-1.4c0.2-0.2,0.4-0.3,0.6-0.3
		c0.4,0,0.7,0.2,1,0.5c0.3,0.4,0.5,0.8,0.7,1.4c0.2,0.6,0.3,1.2,0.4,1.9c0.1,0.7,0.1,1.4,0.1,2C49.3,45.2,49.3,45.7,49.2,46.2z
		 M59.1,36c0-0.2,0.1-0.4,0.2-0.7c0.1-0.3,0.2-0.6,0.3-0.8c0.1-0.3,0.2-0.5,0.4-0.7c0.1-0.2,0.2-0.3,0.3-0.3c0.1,0,0.1,0.1,0.2,0.3
		c0.1,0.2,0.1,0.4,0.1,0.7c0,0.3,0.1,0.5,0.1,0.8c0,0.3,0,0.5,0,0.7H59.1z M95.1,32.3c-0.2-2.2-0.3-4.3-0.3-6.5
		c0-2.3,0.1-4.5,0.4-6.8c0.2-2.2,0.5-4.2,0.9-6c0.4-1.8,0.9-3.2,1.4-4.3c0.5-1.1,1.1-1.6,1.7-1.6c0.4,0,0.7,0.2,0.9,0.6
		c0.2,0.4,0.4,0.9,0.5,1.6c0.1,0.6,0.2,1.3,0.3,2c0,0.7,0.1,1.4,0.1,2c0,2.1-0.1,4.2-0.4,6.4c-0.3,2.1-0.7,4.2-1.1,6.3
		c-0.5,2.1-1,4.2-1.7,6.2c-0.6,2-1.3,4-2,5.9C95.5,36.4,95.3,34.5,95.1,32.3z M113.3,47.5c-0.1-0.4-0.2-0.9-0.3-1.4
		c-0.1-0.5-0.1-1-0.1-1.4c0-0.7,0.1-1.4,0.2-2.2c0.1-0.7,0.4-1.4,0.6-2c0.3-0.6,0.7-1.1,1.1-1.4c0.5-0.4,1-0.6,1.7-0.6
		c0.5,0,0.9,0.2,1.3,0.6c0.4,0.4,0.6,0.9,0.6,1.7c0,0.7-0.1,1.3-0.4,2c-0.2,0.7-0.6,1.3-1,1.9c-0.4,0.6-1,1.1-1.6,1.6
		C114.8,46.7,114.1,47.2,113.3,47.5z M142.1,32.3c-0.2-2.2-0.3-4.3-0.3-6.5c0-2.3,0.1-4.5,0.4-6.8c0.2-2.2,0.5-4.2,0.9-6
		c0.4-1.8,0.9-3.2,1.4-4.3c0.5-1.1,1.1-1.6,1.7-1.6c0.4,0,0.7,0.2,0.9,0.6c0.2,0.4,0.4,0.9,0.5,1.6c0.1,0.6,0.2,1.3,0.3,2
		c0,0.7,0.1,1.4,0.1,2c0,2.1-0.1,4.2-0.4,6.4c-0.3,2.1-0.7,4.2-1.1,6.3c-0.5,2.1-1,4.2-1.7,6.2c-0.6,2-1.3,4-2,5.9
		C142.5,36.4,142.3,34.5,142.1,32.3z M189.7,41.5c-0.1-1.4-0.3-3.8,0.6-4.9c0.3-0.4,0.6-0.5,0.8-0.5c0,0,0,0,0,0
		c0.1,0,0.3,0.2,0.4,0.6c0.8,2.1,0.1,4.7-1.5,7.3C189.9,43.1,189.7,42.2,189.7,41.5z M263.8,30.5c-0.8,2.2-1.8,4.4-2.8,6.6V33
		c0-1.6,0-3.3,0-5.2c0-1.8,0.1-3.7,0.1-5.7c0-1.3,0.1-2.6,0.2-3.9h6c-0.3,2-0.8,3.9-1.3,5.8C265.4,26.2,264.7,28.3,263.8,30.5z
		 M261.9,11.2c0.2-1.7,0.4-3.1,0.7-4.3c0.3-1.2,0.6-2.2,1-3c0.4-0.7,0.9-1.1,1.4-1.1c0.7,0,1.2,0.3,1.6,1c0.4,0.7,0.7,1.4,0.9,2.3
		c0.2,0.9,0.3,1.8,0.3,2.6c0,0.9,0.1,1.5,0.1,1.9c0,1.7-0.1,3.4-0.3,5h-6.1C261.6,14.1,261.8,12.6,261.9,11.2z M245,13
		c0.4-0.5,0.7-0.7,1-0.7c0.3,0,0.6,0.3,0.8,0.9c0.2,0.6,0.4,1.4,0.5,2.4h-3.6C244.2,14.4,244.6,13.5,245,13z M242.2,23.9
		c0.2-2.3,0.5-4.1,0.8-5.7h4.4c0,1.6-0.1,3.3-0.4,5.1c-0.2,1.9-0.6,3.7-1,5.7c-0.4,1.9-1,3.8-1.6,5.7c-0.6,1.9-1.3,3.6-2,5.3
		c-0.2-1-0.3-2.1-0.4-3.3c-0.1-1.2-0.1-2.7-0.1-4.5C241.9,28.9,242,26.1,242.2,23.9z M257.9,42.5c-0.2,0.6-0.6,1.4-1.2,2.5
		c-0.6,1-1.2,2-1.9,3c-0.7,1-1.5,1.9-2.4,2.6c-0.8,0.7-1.7,1.1-2.6,1.1c-0.7,0-1.4-0.2-2.1-0.6c-0.6-0.4-1.2-1-1.8-1.7
		c-0.6-0.7-1.1-1.6-1.5-2.6c-0.4-1-0.8-2-1.1-3.2c0.4-0.5,0.8-1.2,1.3-2.2c0.5-1,1-2.2,1.5-3.5c0.5-1.4,1-2.8,1.5-4.4
		c0.5-1.6,0.9-3.2,1.3-4.9c0.4-1.7,0.7-3.4,0.9-5.1c0.2-1.7,0.3-3.3,0.3-4.8v-0.4h8.5c-0.1,1.8-0.2,3.7-0.3,5.8
		c-0.1,3.6-0.2,7.6-0.2,11.8c0,2.1,0,4.2,0,6.4C258.1,42.2,258,42.4,257.9,42.5z M365.8,36c0.1-0.2,0.1-0.4,0.2-0.7
		c0.1-0.3,0.2-0.6,0.3-0.8c0.1-0.3,0.2-0.5,0.4-0.7c0.1-0.2,0.2-0.3,0.3-0.3c0.1,0,0.1,0.1,0.2,0.3c0.1,0.2,0.1,0.4,0.1,0.7
		c0,0.3,0.1,0.5,0.1,0.8c0,0.3,0,0.5,0,0.7H365.8z M392.3,47.5c-0.1-0.4-0.2-0.9-0.3-1.4c-0.1-0.5-0.1-1-0.1-1.4
		c0-0.7,0.1-1.4,0.2-2.2c0.1-0.7,0.4-1.4,0.6-2c0.3-0.6,0.7-1.1,1.1-1.4c0.5-0.4,1-0.6,1.7-0.6c0.5,0,0.9,0.2,1.3,0.6
		c0.4,0.4,0.6,0.9,0.6,1.7c0,0.7-0.1,1.3-0.4,2c-0.2,0.7-0.6,1.3-1,1.9c-0.4,0.6-1,1.1-1.6,1.6C393.8,46.7,393.1,47.2,392.3,47.5z"
		/>
</g>
</svg>
